<svg width="53" height="53" viewBox="0 0 53 53" fill="none" xmlns="http://www.w3.org/2000/svg">
<circle cx="26.5" cy="26.5" r="26.5" fill="#353C49"/>
<path d="M22.7032 14H31.8407C32.2999 14.1891 32.4542 14.5287 32.4542 15.0189C32.4465 23.0114 32.4503 31.0079 32.4503 39.0004C32.4503 39.0853 32.4542 39.1703 32.4503 39.2552C32.4195 39.672 32.0799 40 31.6632 40C28.6765 40 25.6899 40 22.7071 40C22.7071 37.5378 22.7071 35.0756 22.7071 32.6133C22.7071 28.5688 22.7071 24.5243 22.7071 20.4797C22.7071 20.3678 22.6608 20.2405 22.765 20.144C22.9502 20.4913 23.2396 20.6303 23.637 20.6303C25.1265 20.6187 26.616 20.6264 28.1054 20.6264C28.1826 20.6264 28.2598 20.6264 28.3331 20.6187C28.8232 20.5646 29.1241 20.0707 28.9543 19.6075C28.8309 19.2756 28.5723 19.1136 28.1517 19.1136C26.6546 19.1136 25.1574 19.1213 23.6602 19.1097C23.255 19.1097 22.9541 19.237 22.765 19.5998C22.6685 19.5111 22.7071 19.3914 22.7071 19.2872C22.7071 17.5274 22.7071 15.7676 22.7071 14.0077L22.7032 14ZM25.8712 26.2378C26.6507 26.2378 27.4263 26.2378 28.2058 26.2378C28.6727 26.2378 29.0084 25.902 29.0007 25.4659C28.9929 25.0414 28.6611 24.7172 28.2058 24.7172C26.643 24.7172 25.0802 24.7172 23.5136 24.7172C23.3399 24.7172 23.1817 24.7674 23.0389 24.8677C22.7804 25.0569 22.6685 25.3926 22.7611 25.7014C22.8537 26.0178 23.147 26.2339 23.5097 26.2378C24.2969 26.2417 25.0802 26.2378 25.8674 26.2378H25.8712ZM25.879 27.7622C25.1188 27.7622 24.3586 27.7622 23.5985 27.7622C23.0814 27.7622 22.738 28.0632 22.7341 28.5186C22.7341 28.974 23.0698 29.2866 23.583 29.2866C25.1034 29.2866 26.6275 29.2866 28.1479 29.2866C28.6572 29.2866 29.0045 28.974 29.0007 28.5186C29.0007 28.0671 28.6534 27.7661 28.1363 27.7622C27.3839 27.7622 26.6314 27.7622 25.879 27.7622ZM25.879 32.3316C25.1111 32.3316 24.3393 32.3316 23.5714 32.3316C23.0775 32.3316 22.738 32.6403 22.7341 33.088C22.7341 33.5357 23.0698 33.856 23.5599 33.856C25.0995 33.856 26.6353 33.856 28.1749 33.856C28.6649 33.856 29.0045 33.5357 29.0007 33.088C29.0007 32.6442 28.6572 32.3355 28.1595 32.3355C27.3993 32.3355 26.6391 32.3355 25.879 32.3355V32.3316ZM25.879 35.3766C25.1188 35.3766 24.3586 35.3766 23.5985 35.3766C23.0814 35.3766 22.7418 35.6815 22.738 36.133C22.738 36.5884 23.0775 36.8971 23.5907 36.8971C25.1111 36.8971 26.6353 36.8971 28.1556 36.8971C28.6649 36.8971 29.0084 36.5807 29.0045 36.1253C29.0007 35.6815 28.6572 35.3766 28.1633 35.3727C27.4031 35.3727 26.643 35.3727 25.8828 35.3727L25.879 35.3766Z" fill="#CBE3F6"/>
<path d="M22.7645 20.1401C22.6603 20.2366 22.7066 20.364 22.7066 20.4759C22.7066 24.5204 22.7066 28.5649 22.7066 32.6095C22.7066 35.0717 22.7066 37.5339 22.7066 39.9961C19.7469 39.9961 16.7873 39.9961 13.8277 39.9961C13.3299 39.9961 13.0058 39.6488 13.0058 39.1317C13.0058 32.6519 13.0058 26.176 13.0058 19.6963C13.0058 19.6075 12.9749 19.5072 13.0559 19.4339C14.5917 19.4339 16.1313 19.4339 17.6671 19.4339C17.9025 19.4339 18.0838 19.3605 18.2498 19.1907C18.4581 18.9823 18.4813 18.7276 18.4813 18.4691C18.489 17.0836 18.4813 15.6981 18.4813 14.3126C18.4813 14.2238 18.5122 14.1235 18.4311 14.0502C18.4311 14.0347 18.4311 14.0154 18.4311 14H22.695C22.695 15.7598 22.695 17.5197 22.695 19.2795C22.695 19.3837 22.6526 19.5033 22.7529 19.5921C22.7452 19.623 22.7374 19.6577 22.7297 19.6886C22.6641 19.8082 22.6641 19.924 22.7297 20.0436C22.7374 20.0745 22.7452 20.1092 22.7529 20.1401H22.7645ZM18.7475 24.7134C18.2575 24.7134 17.7674 24.7134 17.2774 24.7134C16.7526 24.7134 16.4593 25.0028 16.4593 25.5277C16.4593 26.5079 16.4593 27.4882 16.4593 28.4685C16.4593 28.9895 16.7564 29.2789 17.2851 29.2789C18.2575 29.2789 19.2299 29.2789 20.2023 29.2789C20.7078 29.2789 21.028 28.9624 21.0319 28.4646C21.0319 27.4843 21.0319 26.5041 21.0319 25.5238C21.0319 25.0376 20.7078 24.7134 20.2254 24.7134C19.7354 24.7134 19.2453 24.7134 18.7553 24.7134H18.7475ZM18.7205 36.901C19.2376 36.901 19.7508 36.9049 20.2679 36.901C20.6846 36.8971 21.0242 36.5614 21.0242 36.1407C21.028 35.1257 21.028 34.1107 21.0242 33.0957C21.0242 32.6635 20.6846 32.3316 20.2486 32.3316C19.2415 32.3316 18.2382 32.3316 17.2311 32.3316C16.7564 32.3316 16.4593 32.6365 16.4555 33.115C16.4555 34.1146 16.4555 35.1103 16.4555 36.1098C16.4555 36.5961 16.7603 36.901 17.2465 36.901C17.7366 36.901 18.2266 36.901 18.7167 36.901H18.7205Z" fill="#E9F2FB"/>
<path d="M39.0017 35.6851C38.392 36.9355 37.7784 38.1859 37.1726 39.4402C37.0183 39.7644 36.7906 39.9689 36.4163 39.9805C36.4163 39.8724 36.4086 39.7605 36.4086 39.6525C36.4086 37.553 36.4086 35.4574 36.4086 33.358V33.3425C37.2575 33.3425 38.1026 33.3425 38.9476 33.3464C38.9669 33.3464 38.9824 33.3464 39.0017 33.3502V35.6851Z" fill="#F6CDA4"/>
<path d="M39.0012 16.5384V17.7075C39.0012 17.7075 38.9665 17.7075 38.9511 17.7114C38.1062 17.7114 37.2612 17.7114 36.4125 17.7114V17.696C36.4125 16.4843 36.4125 15.2689 36.4125 14.0572L36.4086 14.0457C36.5128 14.0457 36.6169 14.0457 36.7211 14.0457C37.8245 14.1383 38.8469 15.0836 38.9742 16.1718C39.0012 16.3994 39.0012 16.411 39.0012 16.5384Z" fill="#C11F58"/>
<path d="M38.9515 17.7126C38.9515 17.7126 38.9862 17.7126 39.0017 17.7087V33.3504C39.0017 33.3504 38.967 33.3504 38.9477 33.3466C38.9477 28.1365 38.9477 22.9265 38.9477 17.7165L38.9515 17.7126Z" fill="#F7BD68"/>
<path d="M25.8708 26.2369C25.0837 26.2369 24.3005 26.2369 23.5135 26.2369C23.1508 26.2369 22.8576 26.0169 22.765 25.7005C22.6724 25.388 22.7804 25.0561 23.0428 24.867C23.1817 24.7629 23.3437 24.7166 23.5173 24.7166C25.0799 24.7166 26.6424 24.7166 28.2088 24.7166C28.664 24.7166 28.9958 25.0407 29.0036 25.4651C29.0113 25.9012 28.6756 26.233 28.2088 26.2369C27.4294 26.2407 26.654 26.2369 25.8746 26.2369H25.8708Z" fill="#1E3D77"/>
<path d="M25.8785 27.7617C26.6308 27.7617 27.3831 27.7617 28.1354 27.7617C28.6524 27.7617 28.9958 28.0627 28.9997 28.518C28.9997 28.9733 28.6601 29.2859 28.147 29.2859C26.6269 29.2859 25.103 29.2859 23.5829 29.2859C23.0698 29.2859 22.7302 28.9733 22.7341 28.518C22.7341 28.0627 23.0775 27.7656 23.5983 27.7617C24.3584 27.7617 25.1184 27.7617 25.8785 27.7617Z" fill="#1E3D77"/>
<path d="M25.8785 32.3308C26.6385 32.3308 27.3985 32.3308 28.1586 32.3308C28.6524 32.3308 28.9958 32.6395 28.9997 33.0832C28.9997 33.527 28.6601 33.8511 28.174 33.8511C26.6346 33.8511 25.0991 33.8511 23.5597 33.8511C23.0698 33.8511 22.7302 33.5308 22.7341 33.0832C22.7341 32.6356 23.0775 32.3308 23.5713 32.3269C24.3391 32.3269 25.1107 32.3269 25.8785 32.3269V32.3308Z" fill="#1E3D77"/>
<path d="M25.8742 35.3806C26.6343 35.3806 27.3943 35.3806 28.1543 35.3806C28.652 35.3806 28.9916 35.6893 28.9954 36.1331C28.9993 36.5884 28.6559 36.9048 28.1466 36.9048C26.6265 36.9048 25.1026 36.9048 23.5825 36.9048C23.0694 36.9048 22.726 36.5961 22.7299 36.1408C22.7299 35.6854 23.0732 35.3845 23.5902 35.3845C24.3503 35.3845 25.1103 35.3845 25.8704 35.3845L25.8742 35.3806Z" fill="#1E3D77"/>
<path d="M22.7648 20.1399C22.7571 20.109 22.7494 20.0743 22.7417 20.0434C22.7417 19.9238 22.7417 19.808 22.7417 19.6884C22.7494 19.6575 22.7571 19.6228 22.7648 19.5919C22.9539 19.2292 23.2548 19.098 23.6599 19.1019C25.1569 19.1135 26.6538 19.1019 28.1508 19.1057C28.5713 19.1057 28.8298 19.2717 28.9532 19.5997C29.123 20.0588 28.8221 20.5527 28.3321 20.6106C28.2549 20.6183 28.1816 20.6183 28.1045 20.6183C26.6152 20.6183 25.126 20.6106 23.6368 20.6222C23.2394 20.6222 22.95 20.4872 22.7648 20.136V20.1399Z" fill="#1E3D77"/>
<path d="M18.7471 24.7131C19.2371 24.7131 19.7271 24.7131 20.2171 24.7131C20.7032 24.7131 21.0234 25.0373 21.0234 25.5235C21.0234 26.5036 21.0234 27.4837 21.0234 28.4638C21.0234 28.9654 20.7032 29.2779 20.1939 29.2779C19.2217 29.2779 18.2494 29.2779 17.2772 29.2779C16.7525 29.2779 16.4554 28.9847 16.4516 28.4676C16.4516 27.4875 16.4516 26.5074 16.4516 25.5273C16.4516 25.0025 16.7448 24.7131 17.2695 24.7131C17.7595 24.7131 18.2494 24.7131 18.7394 24.7131H18.7471Z" fill="#B4CAE6"/>
<path d="M18.7243 36.9007C18.2343 36.9007 17.7443 36.9007 17.2544 36.9007C16.7682 36.9007 16.4634 36.5959 16.4634 36.1097C16.4634 35.1103 16.4634 34.1147 16.4634 33.1153C16.4634 32.6369 16.7644 32.3359 17.2389 32.332C18.2459 32.332 19.249 32.332 20.256 32.332C20.6919 32.332 21.0314 32.6639 21.0314 33.096C21.0353 34.1109 21.0353 35.1257 21.0314 36.1405C21.0314 36.5611 20.6919 36.893 20.2752 36.9007C19.7583 36.9046 19.2451 36.9007 18.7281 36.9007H18.7243Z" fill="#B4CAE6"/>
<path d="M13.0558 19.4336C13.0983 19.3835 13.1369 19.3256 13.187 19.2793C14.8846 17.5776 16.586 15.8798 18.2836 14.182C18.3299 14.1357 18.3839 14.0932 18.4379 14.0508C18.5151 14.128 18.4881 14.2244 18.4881 14.3132C18.4881 15.6984 18.4919 17.0837 18.4881 18.469C18.4881 18.7275 18.4649 18.986 18.2566 19.1905C18.0907 19.3603 17.9055 19.4336 17.674 19.4336C16.1385 19.4298 14.5991 19.4336 13.0636 19.4336H13.0558Z" fill="#CBE4F7"/>
<path d="M22.7418 19.6892C22.7418 19.8088 22.7418 19.9246 22.7418 20.0442C22.6762 19.9246 22.6762 19.8088 22.7418 19.6892Z" fill="#CBE3F6"/>
<path d="M33.8742 33.3467C33.8742 33.2464 33.8704 33.1422 33.8704 33.0419C33.8704 28.0364 33.8704 23.0309 33.8704 18.0215C33.8704 17.9135 33.8704 17.8015 33.8742 17.6935C34.7232 17.6935 35.5682 17.6935 36.4171 17.6935V17.7089C36.4171 22.919 36.4171 28.129 36.4171 33.339V33.3545C35.5682 33.3545 34.7232 33.3506 33.8742 33.3467Z" fill="#F8DC79"/>
<path d="M33.8736 33.3459C34.7187 33.3459 35.5637 33.3498 36.4088 33.3537C36.4088 35.4531 36.4088 37.5487 36.4088 39.6482C36.4088 39.7562 36.4126 39.8681 36.4165 39.9762C36.0962 39.9492 35.8686 39.8025 35.7258 39.5054C35.1508 38.3206 34.5643 37.1396 33.9855 35.9587C33.916 35.812 33.8659 35.6654 33.8697 35.4994C33.8736 34.7816 33.8697 34.0638 33.8697 33.3459H33.8736Z" fill="#FCE0C1"/>
<path d="M36.4159 17.6925C35.5671 17.6925 34.7222 17.6925 33.8734 17.6925C33.8657 17.1947 33.8194 16.6931 33.8966 16.1992C34.0741 15.0416 34.9383 14.2158 36.1034 14.0422C36.2076 14.0422 36.3079 14.0345 36.4121 14.0383C36.4121 15.2499 36.4121 16.477 36.4121 17.6886L36.4159 17.6925Z" fill="#DF3468"/>
<path d="M36.4171 33.3388V17.7087C37.2621 17.7087 38.1072 17.7087 38.9523 17.7087C38.9523 22.9188 38.9523 28.1288 38.9523 33.3388C38.1072 33.3388 37.2621 33.3388 36.4171 33.335V33.3388Z" fill="#F6B056"/>
</svg>
