<svg width="50" height="50" viewBox="0 0 50 50" fill="none" xmlns="http://www.w3.org/2000/svg">
<g clip-path="url(#clip0_1_615)">
<path d="M5.39391 14.38C5.69452 14.6806 5.64442 14.7683 6.02018 14.38C6.05776 14.3424 6.10786 14.2923 6.14544 14.2547C7.71113 12.6891 9.28934 11.136 10.8425 9.57038C13.2975 7.10294 10.9427 9.47018 13.0345 7.37849C13.7359 6.67709 14.4248 5.98821 15.1137 5.32438C15.2515 5.18661 15.2389 5.09893 15.1137 4.96116C14.3997 4.25975 13.6983 3.54582 12.9844 2.84442C12.8466 2.70664 12.7589 2.70664 12.6211 2.84442C12.095 3.383 11.5439 3.92158 11.0053 4.46015C10.7298 4.7357 10.4417 5.01126 10.116 5.32438C8.36245 7.07789 8.68811 6.76476 8.37498 7.09042C6.72161 8.75625 5.05572 10.4096 3.40236 12.0754C3.26458 12.2132 3.2771 12.3008 3.40236 12.4261C4.06621 13.0774 4.71753 13.7537 5.39391 14.4051V14.38Z" fill="#FF3030"/>
<path d="M6.48377 15.9215C6.42114 16.5352 6.37104 17.1489 6.30841 17.9129C6.39609 18.6519 6.45872 19.5412 6.60902 20.4305C6.73428 21.182 6.95974 21.9084 7.27287 22.6098C7.59854 23.3864 8.01188 24.1003 8.57552 24.7266C9.45231 25.7161 10.542 26.3799 11.7946 26.8057C12.4835 27.0437 13.1724 27.169 13.8989 27.1439C14.6003 27.1189 15.1639 26.8684 15.5647 26.2672C15.7652 25.9666 15.9405 25.6409 15.8153 25.2777C15.7276 25.0397 15.6023 24.8017 15.427 24.6139C14.7631 23.8498 13.8863 23.3864 13.0221 22.9355C12.6338 22.7351 12.233 22.5472 11.8447 22.3343C11.5441 22.1715 11.4313 21.7707 11.5816 21.5076C11.7695 21.182 12.1202 21.0192 12.4208 21.182C13.2976 21.6454 14.1869 22.0963 15.0387 22.5973C15.7902 23.0482 16.4541 23.6118 16.8674 24.4009C17.1179 24.8894 17.2432 25.4029 17.1304 25.9415C16.9927 26.6053 16.6294 27.1439 16.1534 27.6073C16.0532 27.7075 16.0658 27.7827 16.1534 27.8453C16.4791 28.0833 16.8423 28.2586 17.2432 28.3338C17.9446 28.4716 18.6335 28.3964 19.2973 28.196C20.0739 27.9706 20.7879 27.6199 21.4643 27.194C22.3661 26.6429 23.1802 26.0041 23.9568 25.2902C24.8211 24.4886 25.6102 23.6244 26.2615 22.6474C26.7625 21.8959 27.1759 21.0818 27.4765 20.2301C27.6769 19.6539 27.8397 19.0653 27.965 18.464C28.0652 17.963 28.1028 17.4495 28.1529 16.936C28.2906 15.433 27.9399 14.0678 27.0757 12.8278C26.4619 11.951 25.7229 11.212 24.9088 10.5357C23.9944 9.77166 23.0425 9.07025 22.0154 8.46905C21.1762 7.98057 20.3495 7.4921 19.4852 7.07877C18.6335 6.66544 17.7442 6.33979 16.8674 5.98909C16.4415 5.81374 16.429 5.83879 16.1284 6.12686C12.9594 9.2957 9.77797 12.4645 6.60902 15.6334C6.53387 15.7085 6.47124 15.8213 6.45872 15.9215H6.48377Z" fill="#353C49"/>
<path d="M23.1302 40.8588C22.7419 40.2702 22.4162 39.6439 22.2033 38.9676C22.0404 38.4165 21.8651 37.8654 21.7899 37.3017C21.7273 36.8007 21.7649 36.2872 21.815 35.7862C21.8275 35.5733 21.815 35.4355 21.6647 35.2727C21.076 34.6589 20.6877 33.9325 20.5499 33.1058C20.337 31.8659 20.5875 30.6885 21.0885 29.5612C21.2012 29.2982 21.314 29.0477 21.4517 28.7471C21.3265 28.7972 21.2263 28.8223 21.1511 28.8598C20.2743 29.2982 19.36 29.6113 18.3705 29.6865C17.0177 29.7992 15.8529 29.4109 14.8759 28.4841C14.7381 28.3588 14.6128 28.3338 14.4375 28.3714C14.2245 28.4215 14.0116 28.4465 13.8112 28.459C13.21 28.4841 12.6213 28.3964 12.0326 28.2461C11.4314 28.0958 10.8552 27.9079 10.3166 27.6199C9.80304 27.3443 9.31455 27.0312 8.81353 26.7181C8.67575 26.6304 8.55049 26.5928 8.38766 26.6554C7.86159 26.8809 7.323 27.0813 6.79693 27.2942C6.05792 27.5948 5.31892 27.8954 4.57992 28.196C3.84091 28.4966 3.10191 28.7847 2.36291 29.0853C1.79926 29.3107 1.22309 29.5487 0.659439 29.7742C0.459032 29.8493 0.271149 29.937 0.0832672 30.0247C0.0832672 30.0497 0.0832672 30.0622 0.0832672 30.0873C0.509134 30.2626 0.935 30.438 1.34834 30.6008C1.88694 30.8263 2.43806 31.0392 2.97665 31.2521C3.51525 31.4776 4.05385 31.6905 4.60497 31.916C5.24377 32.179 5.89509 32.4295 6.53389 32.6925C7.08501 32.918 7.64866 33.1434 8.19978 33.3689C8.66322 33.5567 9.13919 33.7446 9.60263 33.9575C9.85314 34.0703 9.9784 34.2832 9.94082 34.5587C9.91577 34.7341 9.85314 34.922 9.77799 35.0848C9.4398 35.8864 9.08909 36.688 8.7509 37.4896C8.45029 38.2035 8.1622 38.9175 7.86159 39.6189C7.56098 40.3328 7.24784 41.0342 6.94723 41.7481C6.6341 42.4871 6.32096 43.2136 6.02035 43.9525C5.9953 44.0152 6.00782 44.1028 6.00782 44.178C6.08297 44.178 6.15813 44.178 6.22075 44.1529C7.21027 43.7396 8.18725 43.3138 9.17677 42.8879C10.2665 42.4245 11.3562 41.9736 12.4459 41.5101C13.4229 41.0968 14.3999 40.671 15.3769 40.2576C15.5773 40.17 15.7902 40.1825 15.9906 40.3077C16.2662 40.4831 16.3163 40.7837 16.429 41.0467C16.6921 41.6855 16.9426 42.3368 17.2056 42.9756C17.4686 43.6144 17.7317 44.2531 17.9947 44.8919C18.2953 45.6309 18.5834 46.3699 18.884 47.1214C19.1972 47.8979 19.5103 48.6745 19.8234 49.451C19.9111 49.664 19.9988 49.8644 20.1115 50.1149C20.1741 50.0021 20.2242 49.9395 20.2618 49.8644C20.5123 49.2381 20.7628 48.6244 21.0133 47.9981C21.2263 47.4595 21.4517 46.9084 21.6647 46.3699C21.8901 45.8188 22.1156 45.2551 22.3411 44.704C22.5665 44.1529 22.792 43.6018 23.0049 43.0633C23.1803 42.6374 23.3556 42.199 23.531 41.7732C23.5936 41.6103 23.5811 41.4726 23.4558 41.3223C23.3306 41.172 23.2304 40.9966 23.1176 40.8338L23.1302 40.8588Z" fill="#FF3030"/>
<path d="M47.629 20.3924C47.0779 20.1669 46.5268 19.954 45.9757 19.7286C45.3494 19.4781 44.7231 19.2025 44.0968 18.952C43.4455 18.689 42.7942 18.4385 42.1554 18.1755C41.3788 17.8623 40.6148 17.5492 39.8382 17.2361C39.3998 17.0607 39.1743 16.71 39.3246 16.3343C39.5626 15.7331 39.8256 15.1444 40.0762 14.5557C40.3392 13.942 40.6022 13.3283 40.8527 12.7145C41.1158 12.1008 41.3663 11.4871 41.6293 10.8733C41.8924 10.2471 42.1554 9.62084 42.431 8.99459C42.694 8.38086 42.957 7.75461 43.2201 7.14088C43.2451 7.06573 43.2451 6.97805 43.2576 6.9029C43.1825 6.9029 43.1073 6.9029 43.0322 6.94048C42.4184 7.20351 41.7922 7.46653 41.1784 7.72956C40.477 8.03016 39.763 8.31824 39.0616 8.61884C38.4353 8.88186 37.7965 9.15742 37.1702 9.42044C36.5565 9.68347 35.9302 9.94649 35.3165 10.2095C34.828 10.4224 34.3395 10.6354 33.8385 10.8232C33.5253 10.9485 33.1871 10.8107 33.0368 10.5101C32.9116 10.2471 32.7989 9.97154 32.6861 9.70852C32.4607 9.16994 32.2477 8.61884 32.0348 8.08026C31.7718 7.44148 31.5087 6.8027 31.2457 6.16393C30.9827 5.52515 30.7321 4.87384 30.4691 4.23507C30.2061 3.57124 29.9305 2.91994 29.6675 2.25611C29.4921 1.84278 29.3293 1.41693 29.1539 1.0036C29.1289 1.0036 29.1164 1.0036 29.0913 1.0036C29.0412 1.1038 28.9911 1.204 28.941 1.3042C28.8032 1.6549 28.6654 1.99308 28.5277 2.34378C28.3022 2.89488 28.0767 3.44599 27.8638 3.98457C27.6384 4.53567 27.4129 5.08677 27.2 5.62535C26.9369 6.26413 26.6864 6.89038 26.4234 7.52916C26.1979 8.08026 25.985 8.63136 25.747 9.16994C25.6719 9.34529 25.6969 9.44549 25.8347 9.57074C27.1499 10.698 28.3273 11.938 28.9911 13.5913C29.2166 14.1424 29.3794 14.706 29.4295 15.2822C29.5172 16.3092 29.5172 17.3363 29.3042 18.3508C29.1539 19.0647 28.9661 19.7787 28.7531 20.4801C28.6153 20.9184 28.4024 21.3318 28.2396 21.7576C28.2145 21.8328 28.1895 21.9079 28.1644 21.9956C28.8032 21.7451 29.417 21.4821 30.0307 21.2817C30.5818 21.1063 31.158 20.956 31.7342 20.8558C32.2978 20.7556 32.8865 20.693 33.4627 20.6679C34.5023 20.6053 35.5294 20.7306 36.5064 21.1188C37.4208 21.4821 38.2474 21.9956 38.9614 22.6594C39.5376 23.1855 40.0636 23.7616 40.6022 24.3253C40.7024 24.4255 40.7901 24.4881 40.9279 24.4255C41.7295 24.0998 42.5312 23.7742 43.3328 23.4485C44.0718 23.1479 44.7983 22.8348 45.5247 22.5467C46.5644 22.1209 47.604 21.7201 48.6311 21.2942C48.8064 21.219 48.9818 21.1314 49.1571 21.0562C48.6311 20.7932 48.13 20.5803 47.6165 20.3673L47.629 20.3924Z" fill="#FF3030"/>
<path d="M44.1846 33.8945C44.2472 33.8319 44.3098 33.6941 44.2848 33.6065C44.172 33.2307 44.0343 32.855 43.8839 32.5043C43.5207 31.6526 43.1575 30.7883 42.7441 29.9491C42.168 28.7843 41.4791 27.6821 40.715 26.63C39.9008 25.5153 39.0366 24.4506 37.9844 23.5614C36.8697 22.622 35.6171 22.0333 34.1391 21.9957C33.2122 21.9707 32.2979 22.0458 31.396 22.2838C30.6946 22.4717 29.9932 22.6721 29.3293 22.9476C28.0517 23.4737 26.937 24.2502 25.9224 25.1896C24.9078 26.129 24.006 27.1561 23.2545 28.3084C22.5155 29.4356 21.9142 30.613 21.8015 31.9782C21.7389 32.7172 21.9142 33.4061 22.3526 34.0198C22.4153 34.12 22.4904 34.1325 22.6031 34.0323C22.791 33.857 22.9789 33.6816 23.1793 33.5438C24.1313 32.88 25.0957 32.8174 26.0852 33.4687C26.7491 33.8945 27.2501 34.4957 27.6384 35.1596C28.1269 35.9862 28.5653 36.8505 29.0162 37.7022C29.154 37.9652 29.0914 38.2658 28.8784 38.4662C28.653 38.6791 28.3649 38.7292 28.1144 38.5413C27.9766 38.4411 27.8639 38.3034 27.7887 38.1531C27.4129 37.4642 27.0622 36.7502 26.6614 36.0614C26.3483 35.5228 25.985 35.0218 25.484 34.6335C25.1709 34.3955 24.8202 34.2077 24.4193 34.358C23.6678 34.6335 23.1918 35.1596 23.0791 35.9737C23.004 36.5874 23.0541 37.2012 23.2169 37.8024C23.4424 38.6415 23.7805 39.4181 24.244 40.1571C24.8953 41.1716 25.747 41.9482 26.7992 42.5118C27.7386 43.0253 28.7281 43.3635 29.7677 43.5514C30.632 43.7017 31.5213 43.7643 32.2478 43.852C32.874 43.8019 33.3625 43.7392 33.8385 43.7267C34.2393 43.7267 34.5024 43.5764 34.7904 43.2883C37.3707 40.6831 39.9635 38.103 42.5562 35.5228C43.1074 34.9717 43.6585 34.4206 44.1971 33.8695L44.1846 33.8945Z" fill="#353C49"/>
<path d="M47.3912 37.2259C46.6647 36.4994 45.9382 35.773 45.2118 35.0465C45.099 34.9338 45.0114 34.9213 44.8986 35.0465C44.4352 35.5225 43.9717 35.9859 43.5083 36.4493C43.1451 36.8 42.7943 37.1507 42.381 37.5515C40.6024 39.3551 42.4186 37.514 40.7276 39.2424C40.402 39.5806 40.0638 39.8937 39.7256 40.2194C38.3728 41.5721 37.0201 42.9248 35.6673 44.265C35.5296 44.4027 35.5421 44.4904 35.6673 44.6282C36.3688 45.3296 37.0702 46.031 37.7716 46.7324C37.9595 46.9203 37.9846 46.9203 38.1724 46.7324C38.4104 46.4944 38.6484 46.2564 38.8989 46.0059C40.2892 44.6157 41.6796 43.2129 43.0824 41.8226C43.4081 41.4969 43.095 41.81 45.1992 39.6933C45.9257 38.9669 46.6647 38.2279 47.4037 37.5014C47.5164 37.3887 47.4789 37.3136 47.3912 37.2134V37.2259Z" fill="#FF3030"/>
<path d="M13.1901 2.60003L16.5468 5.95666L6.60941 15.8937L3.25266 12.5371C3.03124 12.3157 3.02238 11.9525 3.25266 11.7223L12.3752 2.60003C12.5966 2.37861 12.9598 2.36976 13.1901 2.60003Z" fill="#353C49"/>
<path d="M37.7383 47.0231L34.3815 43.6665L44.3189 33.7294L47.6757 37.0861C47.8971 37.3075 47.9059 37.6706 47.6757 37.9009L38.5531 47.0231C38.3317 47.2446 37.9686 47.2534 37.7383 47.0231Z" fill="#353C49"/>
</g>
<defs>
<clipPath id="clip0_1_615">
<rect width="50" height="50" fill="white"/>
</clipPath>
</defs>
</svg>
