<svg width="12" height="12" viewBox="0 0 12 12" fill="none" xmlns="http://www.w3.org/2000/svg">
<g clip-path="url(#clip0_1_339)">
<path d="M7.86701 5.99581L2.93563 1.06443C2.82081 0.949624 2.76342 0.806119 2.76342 0.633912C2.76342 0.461705 2.82081 0.312981 2.93563 0.18774C3.06087 0.0624985 3.20959 -0.00012207 3.3818 -0.00012207C3.55401 -0.00012207 3.70273 0.0624985 3.82797 0.18774L8.97852 5.33829C9.07245 5.43222 9.1403 5.53658 9.18204 5.65139C9.22378 5.76621 9.24466 5.88099 9.24466 5.99581C9.24466 6.11062 9.22378 6.22541 9.18204 6.34022C9.1403 6.45504 9.07245 6.55939 8.97852 6.65332L3.81232 11.8195C3.68708 11.9448 3.54095 12.0048 3.37397 11.9996C3.20699 11.9943 3.06087 11.9291 2.93563 11.8039C2.82081 11.6786 2.76082 11.5325 2.75559 11.3655C2.75036 11.1986 2.81039 11.0524 2.93563 10.9272L7.86701 5.99581Z" fill="#595F72"/>
</g>
<defs>
<clipPath id="clip0_1_339">
<rect width="11.9986" height="12" fill="white"/>
</clipPath>
</defs>
</svg>
