<svg width="23" height="24" viewBox="0 0 23 24" fill="none" xmlns="http://www.w3.org/2000/svg">
<path d="M13.2036 0.668903C12.691 0.23692 12.0423 0 11.3719 0C10.7016 0 10.0529 0.23692 9.54031 0.668903L1.01379 7.86276C0.697306 8.12949 0.442899 8.46212 0.26835 8.8374C0.0938004 9.21268 0.00332042 9.62156 0.00323486 10.0354V21.7894C0.00323486 23.0097 0.993575 24 2.21382 24H6.00338C6.58966 24 7.15193 23.7671 7.5665 23.3525C7.98106 22.938 8.21396 22.3757 8.21396 21.7894V16.7329C8.21396 15.8739 8.89861 15.1766 9.75126 15.1539H12.9926C13.4041 15.1648 13.7951 15.3359 14.0823 15.6308C14.3694 15.9258 14.53 16.3212 14.5299 16.7329V21.7894C14.5299 23.0097 15.5202 24 16.7405 24H20.5301C21.1163 24 21.6786 23.7671 22.0932 23.3525C22.5077 22.938 22.7406 22.3757 22.7406 21.7894V10.0342C22.7405 9.6203 22.6501 9.21142 22.4755 8.83614C22.301 8.46086 22.0466 8.12823 21.7301 7.8615L13.2036 0.668903Z" fill="#1F1F1F"/>
</svg>
