<svg width="20" height="20" viewBox="0 0 20 20" fill="none" xmlns="http://www.w3.org/2000/svg">
<g clip-path="url(#clip0_24_53)">
<path d="M9.99565 20.0001C9.5819 20.0001 9.22915 19.8528 8.93752 19.5582C8.64583 19.2636 8.50002 18.9094 8.50002 18.4957C8.50002 18.0819 8.64727 17.7292 8.9419 17.4376C9.23646 17.1459 9.59065 17.0001 10.0044 17.0001C10.4181 17.0001 10.7708 17.1474 11.0625 17.4419C11.3541 17.7365 11.5 18.0907 11.5 18.5044C11.5 18.9182 11.3527 19.2709 11.0581 19.5626C10.7635 19.8542 10.4094 20.0001 9.99565 20.0001ZM9.99565 11.5001C9.5819 11.5001 9.22915 11.3527 8.93752 11.0582C8.64583 10.7636 8.50002 10.4094 8.50002 9.99569C8.50002 9.58194 8.64727 9.22925 8.9419 8.93756C9.23646 8.64587 9.59065 8.50006 10.0044 8.50006C10.4181 8.50006 10.7708 8.64738 11.0625 8.94194C11.3541 9.2365 11.5 9.59069 11.5 10.0044C11.5 10.4182 11.3527 10.7709 11.0581 11.0626C10.7635 11.3542 10.4094 11.5001 9.99565 11.5001ZM9.99565 3.00006C9.5819 3.00006 9.22915 2.85275 8.93752 2.55819C8.64583 2.26362 8.50002 1.90944 8.50002 1.49569C8.50002 1.08194 8.64727 0.72923 8.9419 0.437561C9.23646 0.145892 9.59065 6.10352e-05 10.0044 6.10352e-05C10.4181 6.10352e-05 10.7708 0.147355 11.0625 0.441936C11.3541 0.736518 11.5 1.09069 11.5 1.50444C11.5 1.91819 11.3527 2.27087 11.0581 2.56256C10.7635 2.85425 10.4094 3.00006 9.99565 3.00006Z" fill="white"/>
</g>
<defs>
<clipPath id="clip0_24_53">
<rect width="20" height="20" fill="white"/>
</clipPath>
</defs>
</svg>
