<svg width="32" height="32" viewBox="0 0 32 32" fill="none" xmlns="http://www.w3.org/2000/svg">
<circle cx="16" cy="16" r="16" fill="#8E95A2"/>
<g clip-path="url(#clip0_1_570)">
<path d="M15.1428 16.8573H8.8571C8.61425 16.8573 8.4107 16.7746 8.24653 16.6093C8.08213 16.4441 7.99996 16.2394 7.99996 15.995C7.99996 15.7508 8.08213 15.5477 8.24653 15.3858C8.4107 15.2239 8.61425 15.143 8.8571 15.143H15.1428V8.85726C15.1428 8.61441 15.2255 8.41081 15.3908 8.24641C15.556 8.08224 15.7607 8.00012 16.0051 8.00012C16.2493 8.00012 16.4524 8.08224 16.6142 8.24641C16.7761 8.41081 16.8571 8.61441 16.8571 8.85726V15.143H23.1428C23.3857 15.143 23.5893 15.2257 23.7537 15.391C23.9178 15.5561 24 15.7609 24 16.0053C24 16.2494 23.9178 16.4525 23.7537 16.6144C23.5893 16.7763 23.3857 16.8573 23.1428 16.8573H16.8571V23.143C16.8571 23.3858 16.7744 23.5894 16.6091 23.7536C16.444 23.918 16.2392 24.0001 15.9948 24.0001C15.7506 24.0001 15.5476 23.918 15.3857 23.7536C15.2238 23.5894 15.1428 23.3858 15.1428 23.143V16.8573Z" fill="white"/>
</g>
<defs>
<clipPath id="clip0_1_570">
<rect width="16" height="16" fill="white" transform="translate(8 8)"/>
</clipPath>
</defs>
</svg>
