<svg width="50" height="50" viewBox="0 0 50 50" fill="none" xmlns="http://www.w3.org/2000/svg">
<g clip-path="url(#clip0_1_609)">
<path d="M47.9235 14.629C47.9235 14.5239 47.9271 14.417 47.918 14.3119C47.8582 13.6072 47.2585 13.0582 46.5574 13.0618C45.8345 13.0654 45.2402 13.638 45.2094 14.3699C45.2004 14.5765 45.2094 14.7848 45.2094 14.9895C45.0137 15.0258 44.8924 14.9207 44.7583 14.8627C38.9117 12.3099 33.0741 9.73722 27.213 7.21704C26.4104 6.8728 25.9249 6.5032 26.1405 5.57919C26.1441 5.5647 26.1405 5.54839 26.1405 5.5339C26.1024 4.78926 25.5317 4.22761 24.7998 4.21855C24.0497 4.20949 23.4536 4.7802 23.4246 5.53933C23.4156 5.76581 23.3938 5.9959 23.4282 6.21694C23.4898 6.61372 23.3159 6.78584 22.9608 6.94165C17.386 9.3658 11.8184 11.8063 6.24898 14.2413C5.63479 14.5094 5.01878 14.7739 4.37923 15.0512C4.3593 14.6942 4.37923 14.388 4.31762 14.0982C4.17087 13.4242 3.50595 12.9894 2.82291 13.0799C2.10545 13.1742 1.63982 13.7412 1.63982 14.542C1.63801 21.4866 1.63982 28.4311 1.63438 35.3756C1.63438 36.1203 1.98768 36.575 2.65079 36.8631C9.73665 39.9558 16.8225 43.0503 23.9011 46.1611C24.5153 46.4311 25.0552 46.4329 25.6676 46.1629C32.7317 43.0576 39.8013 39.9667 46.8744 36.883C47.5937 36.5696 47.9325 36.0786 47.9307 35.2796C47.918 28.3949 47.9235 21.5101 47.9235 14.6254V14.629ZM4.37923 23.9035V19.2345C6.14389 20.0045 7.89226 20.7691 9.72396 21.5681C7.90132 22.3635 6.1602 23.1244 4.37923 23.9035ZM23.1818 15.6816C19.8953 17.1166 16.6087 18.5533 13.324 19.9955C13.17 20.0625 13.0522 20.0571 12.9018 19.9919C10.8002 19.0679 8.69669 18.1493 6.59322 17.2289C6.55336 17.2108 6.51893 17.1782 6.44646 17.1256C12.1137 14.6453 17.7483 12.1813 23.4228 9.69917C23.4228 11.6287 23.4192 13.4948 23.4264 15.361C23.4264 15.553 23.3286 15.6182 23.1818 15.6816ZM36.1252 19.9466C32.9256 18.5352 29.7224 17.1329 26.5155 15.7396C26.2474 15.6237 26.1278 15.5059 26.1314 15.1888C26.1513 13.3825 26.1405 11.5762 26.1405 9.69192C31.8403 12.1849 37.4695 14.6489 43.1639 17.1401C42.4283 17.4662 41.758 17.7652 41.0876 18.0605C39.6581 18.6856 38.225 19.3034 36.7991 19.9375C36.5618 20.0426 36.3698 20.0516 36.127 19.9448L36.1252 19.9466ZM45.175 23.898C43.4085 23.1244 41.6565 22.358 39.8538 21.5681C41.6529 20.78 43.394 20.019 45.175 19.24V23.898Z" fill="#353C49"/>
<path d="M43.1417 26.0062C37.4817 28.4829 31.8471 30.9487 26.1437 33.4435V32.5575C26.1437 31.0049 26.1491 29.454 26.1382 27.9013C26.1364 27.6567 26.1998 27.5353 26.4354 27.432C29.6839 26.0188 32.9269 24.5948 36.1718 23.1725C36.3367 23.1001 36.4835 23.0548 36.6791 23.1417C38.779 24.0748 40.8843 24.9916 42.9877 25.9156C43.0276 25.9337 43.0638 25.9609 43.1399 26.008L43.1417 26.0062Z" fill="#FF3030"/>
<path d="M6.40643 25.996C8.62042 25.0267 10.7801 24.0846 12.9361 23.1334C13.0973 23.0628 13.2169 23.0954 13.3582 23.157C16.6176 24.5847 19.877 26.0123 23.1364 27.4382C23.3103 27.5143 23.4335 27.5795 23.4335 27.8187C23.4226 29.6721 23.4262 31.5238 23.4262 33.4442C17.7445 30.9585 12.1008 28.489 6.40643 25.9978V25.996Z" fill="#FF3030"/>
<path d="M16.5179 21.5676C19.2501 20.3719 21.917 19.2051 24.5821 18.0347C24.7343 17.9676 24.8612 17.9785 25.0115 18.0437C27.664 19.2087 30.3182 20.3682 33.0594 21.5658C30.7259 22.5877 28.4593 23.5787 26.1457 24.5933C26.153 23.9646 26.1964 23.3649 25.6855 22.9355C25.4101 22.7036 25.0985 22.5804 24.7325 22.5949C23.8592 22.6257 23.4788 23.1783 23.4081 24.5824C21.1271 23.5859 18.8642 22.5949 16.5179 21.5694V21.5676Z" fill="#FF3030"/>
</g>
<defs>
<clipPath id="clip0_1_609">
<rect width="46.2963" height="42.1473" fill="white" transform="translate(1.63438 4.21777)"/>
</clipPath>
</defs>
</svg>
