<svg width="50" height="50" viewBox="0 0 50 50" fill="none" xmlns="http://www.w3.org/2000/svg">
<path d="M43.5185 12.2C43.4543 9.91474 41.8701 8.3573 39.5795 8.33589C38.6858 8.32519 37.792 8.32519 36.8983 8.33589C36.6574 8.33589 36.529 8.30913 36.5343 8.02012C36.5343 7.79534 36.4755 7.5652 36.4005 7.34577C36.0473 6.25931 35.1054 5.61707 33.8477 5.61707C27.6395 5.61707 21.4367 5.61707 15.2285 5.61707C15.1269 5.61707 15.0252 5.61707 14.9288 5.62777C13.6283 5.72946 12.6061 6.71958 12.5473 7.98801C12.5312 8.32519 12.4081 8.3466 12.1405 8.34124C11.1183 8.33589 10.0961 8.30913 9.0739 8.36265C7.46299 8.44293 6.09827 9.62038 5.70223 11.1832C5.49886 11.9753 5.55773 12.7834 5.58449 13.5916C5.70223 17.5039 8.38351 20.6723 12.2208 21.4376C12.5526 21.5019 12.6329 21.6571 12.6864 21.9568C13.5106 26.6505 16.1812 29.8189 20.6232 31.5048C20.9229 31.6172 20.9069 31.7189 20.8159 31.9544C20.3556 33.1157 19.9168 34.2825 19.4565 35.4439C19.3388 35.7382 19.3602 35.8292 19.7081 35.8239C21.319 35.8078 22.9352 35.8185 24.5462 35.8185C26.1571 35.8185 27.7733 35.8078 29.3842 35.8239C29.7321 35.8239 29.7535 35.7382 29.6358 35.4439C29.1702 34.2825 28.7367 33.1157 28.2711 31.9544C28.1694 31.7028 28.1908 31.6118 28.4691 31.5048C32.9272 29.8082 35.5978 26.6184 36.4059 21.9086C36.4594 21.6035 36.5771 21.4965 36.8661 21.4323C39.6491 20.8489 41.624 19.238 42.8228 16.6743C43.4864 15.2507 43.5506 13.7307 43.5078 12.1947L43.5185 12.2ZM12.5312 18.9008C10.444 18.5422 8.59759 16.6315 8.2069 14.4693C8.05705 13.6397 8.09451 12.8048 8.12662 11.9753C8.14803 11.3705 8.68857 10.8835 9.30403 10.8727C10.2941 10.8567 11.2896 10.8727 12.2797 10.862C12.4563 10.862 12.5312 10.8942 12.5312 11.0975C12.5259 13.6986 12.5312 16.2997 12.5312 18.9008ZM40.3395 16.0267C39.5635 17.4236 38.4235 18.3602 36.8983 18.8473C36.5879 18.9436 36.545 18.8687 36.5504 18.5797C36.5611 17.3433 36.5557 16.107 36.5557 14.8707C36.5557 13.6344 36.5611 12.4248 36.5504 11.2046C36.5504 10.953 36.5879 10.8567 36.8715 10.862C37.8081 10.8835 38.7393 10.862 39.6759 10.8727C40.4573 10.8781 40.9603 11.3865 40.9817 12.1679C41.0138 13.4952 41.0085 14.8172 40.3395 16.0267Z" fill="#353C49"/>
<path d="M24.4984 44.8351C20.4363 44.8351 16.3796 44.8351 12.3175 44.8351C11.9482 44.8351 11.6004 44.7923 11.3006 44.5568C10.8993 44.2464 10.7173 43.7272 10.8457 43.2509C10.9849 42.7371 11.3863 42.3518 11.9108 42.325C12.6012 42.2875 13.2915 42.2929 13.9819 42.3036C14.2602 42.3036 14.3726 42.2554 14.4101 41.945C14.6456 39.7935 16.2244 38.3591 18.3758 38.3538C22.4914 38.3431 26.6123 38.3431 30.7279 38.3538C32.8794 38.3591 34.4689 39.8149 34.683 41.9557C34.7097 42.2394 34.806 42.3143 35.0736 42.3036C35.6945 42.2822 36.3099 42.2875 36.9307 42.3036C37.7335 42.3196 38.2848 42.8334 38.2901 43.556C38.2901 44.2892 37.7175 44.8297 36.8986 44.8297C32.767 44.8297 28.6353 44.8297 24.5037 44.8297L24.4984 44.8351Z" fill="#353C49"/>
<path d="M20.2281 23.1666C20.3458 22.4708 20.4743 21.6787 20.6295 20.8866C20.6991 20.5387 20.6616 20.2765 20.3672 20.0142C19.8053 19.5219 19.2915 18.976 18.7563 18.4461C18.3603 18.0554 18.2319 17.5898 18.4245 17.0653C18.6118 16.5622 18.9972 16.2999 19.5324 16.2304C20.3191 16.1287 21.1005 15.9949 21.8818 15.8985C22.0959 15.8718 22.2083 15.7915 22.2993 15.5988C22.6418 14.887 22.995 14.1805 23.3429 13.4741C23.5837 12.9817 23.9476 12.682 24.5203 12.6713C25.109 12.6659 25.489 12.9656 25.7405 13.4741C26.0884 14.1805 26.4416 14.887 26.7841 15.5988C26.8751 15.7861 26.9875 15.8718 27.2016 15.8985C27.999 16.0002 28.7964 16.1233 29.5939 16.2464C30.1183 16.3267 30.4983 16.6104 30.6696 17.1242C30.8408 17.6379 30.7017 18.0875 30.3164 18.4622C29.7705 18.9974 29.2406 19.5486 28.6787 20.0624C28.4486 20.2711 28.379 20.4799 28.4379 20.7796C28.577 21.5128 28.684 22.2567 28.8178 22.99C28.9195 23.5412 28.775 23.9961 28.3308 24.328C27.8866 24.6651 27.3996 24.6651 26.9126 24.4029C26.2543 24.055 25.5907 23.7125 24.9377 23.3486C24.6648 23.1987 24.4454 23.1719 24.1564 23.3378C23.4713 23.7339 22.7702 24.0978 22.0638 24.4404C21.1807 24.8685 20.2067 24.2316 20.2281 23.1612V23.1666Z" fill="#FF3030"/>
</svg>
