<svg width="22" height="24" viewBox="0 0 22 24" fill="none" xmlns="http://www.w3.org/2000/svg">
<path d="M14.3016 19.8001C13.4852 19.8001 12.797 19.5183 12.237 18.9547C11.677 18.3909 11.397 17.7009 11.397 16.8847C11.397 16.0683 11.6788 15.3801 12.2424 14.8201C12.8062 14.2601 13.4962 13.9801 14.3124 13.9801C15.1288 13.9801 15.817 14.2619 16.377 14.8255C16.937 15.3893 17.217 16.0793 17.217 16.8955C17.217 17.7119 16.9352 18.4001 16.3716 18.9601C15.8078 19.5201 15.1178 19.8001 14.3016 19.8001ZM1.79701 24.0001C1.31701 24.0001 0.897009 23.8201 0.537009 23.4601C0.177009 23.1001 -0.00299072 22.6801 -0.00299072 22.2001V3.60012C-0.00299072 3.12012 0.177009 2.70012 0.537009 2.34012C0.897009 1.98012 1.31701 1.80012 1.79701 1.80012H3.74701V0.960122C3.74701 0.688124 3.83899 0.460124 4.02301 0.276122C4.20703 0.0921201 4.43503 0.00012207 4.70701 0.00012207C4.98739 0.00012207 5.22253 0.0921201 5.41231 0.276122C5.60209 0.460124 5.69701 0.688124 5.69701 0.960122V1.80012H15.897V0.960122C15.897 0.688124 15.989 0.460124 16.173 0.276122C16.357 0.0921201 16.585 0.00012207 16.857 0.00012207C17.1376 0.00012207 17.3727 0.0921201 17.5623 0.276122C17.7521 0.460124 17.847 0.688124 17.847 0.960122V1.80012H19.797C20.277 1.80012 20.697 1.98012 21.057 2.34012C21.417 2.70012 21.597 3.12012 21.597 3.60012V22.2001C21.597 22.6801 21.417 23.1001 21.057 23.4601C20.697 23.8201 20.277 24.0001 19.797 24.0001H1.79701ZM1.79701 22.2001H19.797V9.30012H1.79701V22.2001Z" fill="#C4CAD4"/>
</svg>
