<svg width="17" height="16" viewBox="0 0 17 16" fill="none" xmlns="http://www.w3.org/2000/svg">
<path d="M9.33356 0.445935C8.99185 0.157947 8.55935 0 8.11247 0C7.66559 0 7.2331 0.157947 6.89139 0.445935L1.20704 5.24184C0.996054 5.41966 0.82645 5.64141 0.710084 5.8916C0.593717 6.14179 0.533397 6.41437 0.53334 6.6903V14.5263C0.53334 15.3398 1.19357 16 2.00706 16H4.53344C4.92429 16 5.29914 15.8447 5.57552 15.5684C5.85189 15.292 6.00716 14.9171 6.00716 14.5263V11.1553C6.00716 10.5826 6.46359 10.1178 7.03203 10.1026H9.19292C9.46726 10.1098 9.72792 10.2239 9.91936 10.4206C10.1108 10.6172 10.2179 10.8808 10.2178 11.1553V14.5263C10.2178 15.3398 10.878 16 11.6915 16H14.2179C14.6087 16 14.9836 15.8447 15.26 15.5684C15.5363 15.292 15.6916 14.9171 15.6916 14.5263V6.68946C15.6915 6.41353 15.6312 6.14095 15.5149 5.89076C15.3985 5.64057 15.2289 5.41882 15.0179 5.241L9.33356 0.445935Z" fill="#8E95A2"/>
</svg>
