<svg width="17" height="16" viewBox="0 0 17 16" fill="none" xmlns="http://www.w3.org/2000/svg">
<g clip-path="url(#clip0_1_596)">
<path d="M10.6351 13.2001C10.0751 13.2001 9.60307 13.0122 9.21896 12.6365C8.83485 12.2606 8.64277 11.8006 8.64277 11.2565C8.64277 10.7122 8.83608 10.2534 9.22266 9.88006C9.60941 9.50674 10.0827 9.32006 10.6425 9.32006C11.2026 9.32006 11.6746 9.50794 12.0587 9.88366C12.4428 10.2595 12.6349 10.7195 12.6349 11.2637C12.6349 11.8079 12.4416 12.2667 12.055 12.6401C11.6683 13.0134 11.195 13.2001 10.6351 13.2001ZM2.0578 16.0001C1.72855 16.0001 1.44046 15.8801 1.19352 15.6401C0.946588 15.4001 0.82312 15.1201 0.82312 14.8001V2.40006C0.82312 2.08006 0.946588 1.80006 1.19352 1.56006C1.44046 1.32006 1.72855 1.20006 2.0578 1.20006H3.39537V0.640061C3.39537 0.458729 3.45847 0.306729 3.58469 0.184061C3.71092 0.061393 3.86731 6.10352e-05 4.05387 6.10352e-05C4.24619 6.10352e-05 4.40748 0.061393 4.53766 0.184061C4.66784 0.306729 4.73295 0.458729 4.73295 0.640061V1.20006H11.7295V0.640061C11.7295 0.458729 11.7926 0.306729 11.9188 0.184061C12.045 0.061393 12.2014 6.10352e-05 12.388 6.10352e-05C12.5805 6.10352e-05 12.7417 0.061393 12.8718 0.184061C13.0019 0.306729 13.0671 0.458729 13.0671 0.640061V1.20006H14.4046C14.7339 1.20006 15.022 1.32006 15.2689 1.56006C15.5158 1.80006 15.6393 2.08006 15.6393 2.40006V14.8001C15.6393 15.1201 15.5158 15.4001 15.2689 15.6401C15.022 15.8801 14.7339 16.0001 14.4046 16.0001H2.0578ZM2.0578 14.8001H14.4046V6.20006H2.0578V14.8001Z" fill="#8E95A2"/>
</g>
<defs>
<clipPath id="clip0_1_596">
<rect width="16.4624" height="16" fill="white"/>
</clipPath>
</defs>
</svg>
