<svg width="53" height="53" viewBox="0 0 53 53" fill="none" xmlns="http://www.w3.org/2000/svg">
<circle cx="26.5" cy="26.5" r="26.5" fill="#FFE37F"/>
<path d="M29.3085 15.2686C29.8665 16.1787 30.2876 17.1388 30.4932 18.1933C31.3037 22.3438 28.216 26.525 23.9798 26.9905C23.7054 27.0204 23.4884 27.1125 23.2888 27.3138C22.3112 28.2994 21.32 29.2716 20.3319 30.2474C20.226 30.3522 20.1345 30.4757 19.9871 30.5311C19.8109 30.3552 19.6355 30.1793 19.4594 30.0035C18.2981 28.8457 17.1368 27.688 15.9755 26.5303C15.9913 26.4262 16.0465 26.3424 16.1289 26.2818C16.7255 25.8417 17.1768 25.2565 17.7031 24.7461C18.6958 23.8376 19.6461 22.8864 20.5723 21.912C20.6222 21.9105 20.6728 21.909 20.7227 21.9083C21.6013 22.3708 22.9576 22.0542 23.5791 21.2639C24.2006 20.4744 24.2558 19.6152 23.9587 18.6985C23.9587 18.6498 23.9602 18.6012 23.9609 18.5525C24.0562 18.4725 24.1575 18.3984 24.246 18.3116C25.5343 17.0386 26.8218 15.7648 28.1079 14.4888C28.1956 14.402 28.2689 14.3002 28.3483 14.2052C28.6689 14.4357 28.8768 14.7717 29.1475 15.0486C29.1822 15.0958 29.217 15.1429 29.2518 15.1901C29.2707 15.2163 29.2896 15.2432 29.3085 15.2694V15.2686Z" fill="#FF5922"/>
<path d="M23.9611 18.5519C23.9611 18.6006 23.9596 18.6492 23.9588 18.6979C23.8401 18.7166 23.76 18.7952 23.6798 18.8737C22.7521 19.7928 21.8244 20.711 20.896 21.6293C20.8159 21.7086 20.7357 21.7872 20.7229 21.9069C20.673 21.9084 20.6223 21.9099 20.5724 21.9107C20.0946 21.6502 19.7234 21.2641 19.3453 20.8861C19.2879 20.8285 19.2334 20.7327 19.1291 20.7814C19.0482 20.8188 19.0701 20.9086 19.0648 20.9804C18.9719 22.1389 18.553 23.1896 17.9822 24.1895C17.8794 24.3698 17.7047 24.5143 17.7032 24.7448C17.177 25.2552 16.7256 25.8404 16.1291 26.2805C16.0474 26.3411 15.9915 26.4249 15.9756 26.5289C15.9544 26.5229 15.9325 26.5177 15.9113 26.5117C14.5656 25.1736 13.2198 23.8355 11.8748 22.4974C11.9368 21.306 12.0003 20.1176 12.4849 18.9957C12.844 18.1635 13.3196 17.4122 13.9637 16.7693C14.7326 16.0022 15.5137 15.2464 16.2758 14.4733C16.7808 13.9614 17.3698 13.6553 18.1001 13.6276C18.1969 13.6239 18.2922 13.5812 18.3882 13.5565C18.4471 13.5999 18.5008 13.671 18.5651 13.6815C19.1503 13.7825 19.6032 14.1021 20.0008 14.5137C21.3103 15.869 22.7491 17.1008 23.9611 18.5497V18.5519Z" fill="#FF662A"/>
<path d="M23.9621 18.5522C22.7502 17.1026 21.3121 15.8707 20.0019 14.5162C19.6042 14.1046 19.1513 13.785 18.5661 13.684C18.5019 13.6727 18.4474 13.6016 18.3892 13.559C19.927 12.3773 21.675 11.8766 23.6068 12.0256C25.3578 12.1603 26.8843 12.8256 28.1749 14.0118C28.2384 14.0701 28.292 14.1405 28.3503 14.2048C28.2701 14.2999 28.1975 14.4017 28.1098 14.4885C26.8238 15.7645 25.537 17.0382 24.2479 18.3112C24.1594 18.398 24.0581 18.4721 23.9629 18.5522H23.9621Z" fill="#FF4700"/>
<path d="M11.876 22.4995C13.2218 23.8376 14.5676 25.1757 15.9126 26.5138C15.7901 26.6523 15.6722 26.7952 15.5436 26.9284C14.8367 27.6581 14.0724 28.3316 13.3995 29.0942C12.0832 27.801 10.7684 26.5063 9.44907 25.2154C9.32432 25.0934 9.31223 25.0088 9.44302 24.8816C10.2573 24.0913 11.0655 23.2943 11.8753 22.4995H11.876Z" fill="#EAF2FA"/>
<path d="M13.3995 29.0942C14.0724 28.3316 14.8367 27.6581 15.5436 26.9284C15.6722 26.7952 15.7901 26.6522 15.9126 26.5138C15.9338 26.5198 15.9557 26.5258 15.9769 26.531C17.1382 27.6887 18.2995 28.8465 19.4608 30.0042C19.6369 30.1801 19.8123 30.356 19.9885 30.5318C19.454 31.168 18.8204 31.709 18.2443 32.3047C17.9948 32.5629 17.7385 32.8151 17.4852 33.0703C17.43 33.0464 17.3605 33.0367 17.3211 32.997C16.0124 31.6978 14.7067 30.3956 13.4002 29.0935L13.3995 29.0942Z" fill="#D6E4F5"/>
<path d="M29.2522 15.1893C29.2174 15.1421 29.1827 15.095 29.1479 15.0479C29.2106 15.0748 29.2424 15.1242 29.2522 15.1893Z" fill="#F5C521"/>
<path d="M20.7232 21.9078C20.7361 21.788 20.8162 21.7087 20.8963 21.6301C21.8248 20.7119 22.7525 19.7929 23.6801 18.8746C23.7603 18.7953 23.8404 18.7167 23.9591 18.6987C24.2563 19.6155 24.2011 20.4746 23.5796 21.2642C22.9581 22.0545 21.6017 22.371 20.7232 21.9085V21.9078Z" fill="#FF662A"/>
<path d="M17.7047 24.747C17.707 24.5173 17.8809 24.3721 17.9837 24.1917C18.5545 23.1911 18.9734 22.1404 19.0664 20.9827C19.0724 20.9116 19.0505 20.8218 19.1306 20.7836C19.235 20.735 19.2894 20.8307 19.3469 20.8884C19.7249 21.2671 20.0961 21.6525 20.5739 21.9129C19.6478 22.8873 18.6982 23.8385 17.7047 24.747Z" fill="#FF4700"/>
<path d="M23.1837 38.9814C22.6257 38.0713 22.2046 37.1112 21.9989 36.0567C21.1884 31.9062 24.2762 27.725 28.5124 27.2595C28.7868 27.2296 29.0038 27.1375 29.2034 26.9362C30.181 25.9506 31.1722 24.9784 32.1603 24.0026C32.2662 23.8978 32.3577 23.7743 32.5051 23.7189C32.6813 23.8948 32.8567 24.0707 33.0328 24.2465C34.1941 25.4043 35.3554 26.562 36.5167 27.7197C36.5008 27.8238 36.4457 27.9076 36.3632 27.9682C35.7667 28.4083 35.3153 28.9935 34.7891 29.5039C33.7964 30.4124 32.8461 31.3636 31.9199 32.338C31.87 32.3395 31.8193 32.341 31.7694 32.3417C30.8909 31.8792 29.5345 32.1958 28.9131 32.9861C28.2916 33.7756 28.2364 34.6348 28.5335 35.5515C28.5335 35.6002 28.532 35.6488 28.5313 35.6975C28.436 35.7775 28.3347 35.8516 28.2462 35.9384C26.9579 37.2114 25.6703 38.4852 24.3843 39.7612C24.2966 39.848 24.2233 39.9498 24.1439 40.0448C23.8233 39.8143 23.6154 39.4783 23.3447 39.2014C23.3099 39.1542 23.2752 39.1071 23.2404 39.0599C23.2215 39.0337 23.2026 39.0068 23.1837 38.9806L23.1837 38.9814Z" fill="#FF5922"/>
<path d="M28.5311 35.6981C28.5311 35.6494 28.5326 35.6008 28.5334 35.5521C28.6521 35.5334 28.7322 35.4548 28.8124 35.3763C29.7401 34.4572 30.6677 33.539 31.5962 32.6207C31.6763 32.5414 31.7565 32.4628 31.7693 32.3431C31.8192 32.3416 31.8699 32.3401 31.9198 32.3393C32.3976 32.5998 32.7688 32.9859 33.1468 33.3639C33.2043 33.4215 33.2587 33.5173 33.3631 33.4686C33.444 33.4312 33.422 33.3414 33.4273 33.2696C33.5203 32.1111 33.9392 31.0604 34.51 30.0605C34.6128 29.8802 34.7875 29.7357 34.789 29.5052C35.3152 28.9948 35.7666 28.4096 36.3631 27.9695C36.4448 27.9089 36.5007 27.8251 36.5166 27.7211C36.5378 27.7271 36.5597 27.7323 36.5808 27.7383C37.9266 29.0764 39.2724 30.4145 40.6174 31.7526C40.5554 32.944 40.4919 34.1324 40.0073 35.2543C39.6482 36.0865 39.1726 36.8378 38.5284 37.4807C37.7595 38.2478 36.9785 39.0036 36.2164 39.7767C35.7114 40.2886 35.1224 40.5947 34.3921 40.6224C34.2953 40.6261 34.2 40.6688 34.104 40.6935C34.045 40.6501 33.9914 40.579 33.9271 40.5685C33.3419 40.4675 32.889 40.1479 32.4913 39.7363C31.1819 38.381 29.7431 37.1492 28.5311 35.7003L28.5311 35.6981Z" fill="#FF662A"/>
<path d="M28.5301 35.6978C29.742 37.1474 31.1801 38.3793 32.4903 39.7338C32.888 40.1454 33.3409 40.465 33.926 40.566C33.9903 40.5773 34.0447 40.6484 34.103 40.691C32.5651 41.8727 30.8171 42.3734 28.8854 42.2244C27.1344 42.0897 25.6079 41.4244 24.3173 40.2382C24.2538 40.1799 24.2001 40.1095 24.1419 40.0452C24.2221 39.9501 24.2947 39.8483 24.3824 39.7615C25.6684 38.4855 26.9552 37.2118 28.2443 35.9388C28.3327 35.852 28.4341 35.7779 28.5293 35.6978L28.5301 35.6978Z" fill="#FF4700"/>
<path d="M40.6162 31.7505C39.2704 30.4124 37.9246 29.0743 36.5796 27.7362C36.7021 27.5977 36.82 27.4548 36.9485 27.3216C37.6555 26.5919 38.4198 25.9184 39.0927 25.1558C40.409 26.449 41.7238 27.7437 43.0431 29.0346C43.1679 29.1566 43.18 29.2412 43.0492 29.3684C42.2349 30.1587 41.4267 30.9557 40.6169 31.7505L40.6162 31.7505Z" fill="#EAF2FA"/>
<path d="M39.0927 25.1558C38.4198 25.9184 37.6555 26.5919 36.9485 27.3216C36.82 27.4548 36.7021 27.5978 36.5796 27.7362C36.5584 27.7302 36.5365 27.7242 36.5153 27.719C35.354 26.5613 34.1927 25.4035 33.0314 24.2458C32.8553 24.0699 32.6798 23.894 32.5037 23.7182C33.0382 23.082 33.6718 22.541 34.2479 21.9453C34.4974 21.6871 34.7537 21.4349 35.007 21.1797C35.0622 21.2036 35.1317 21.2133 35.1711 21.253C36.4798 22.5522 37.7855 23.8544 39.092 25.1565L39.0927 25.1558Z" fill="#D6E4F5"/>
<path d="M23.2392 39.0607C23.2739 39.1079 23.3087 39.155 23.3435 39.2021C23.2808 39.1752 23.249 39.1258 23.2392 39.0607Z" fill="#F5C521"/>
<path d="M31.769 32.3422C31.7561 32.462 31.676 32.5413 31.5958 32.6199C30.6674 33.5381 29.7397 34.4571 28.812 35.3754C28.7319 35.4547 28.6518 35.5333 28.5331 35.5513C28.2359 34.6345 28.2911 33.7754 28.9126 32.9858C29.5341 32.1955 30.8904 31.879 31.769 32.3415L31.769 32.3422Z" fill="#FF662A"/>
<path d="M34.7883 29.503C34.786 29.7327 34.6121 29.8779 34.5093 30.0583C33.9385 31.0589 33.5196 32.1096 33.4266 33.2673C33.4206 33.3384 33.4425 33.4282 33.3623 33.4664C33.258 33.515 33.2036 33.4193 33.1461 33.3616C32.7681 32.9829 32.3969 32.5975 31.919 32.3371C32.8452 31.3627 33.7948 30.4115 34.7883 29.503Z" fill="#FF4700"/>
</svg>
