<svg width="69" height="69" viewBox="0 0 69 69" fill="none" xmlns="http://www.w3.org/2000/svg">
<g filter="url(#filter0_d_1_678)">
<circle cx="34.5" cy="34.5" r="33.5" fill="#FF3030"/>
<g clip-path="url(#clip0_1_678)">
<path d="M26.8249 30.7409C26.8393 29.9207 26.7728 29.0258 26.9732 28.1412C27.2166 27.0653 27.685 26.105 28.4071 25.2715C28.7926 24.8266 29.2099 24.4114 29.6456 24.0176C31.1551 22.6554 33.4531 22.6738 34.9524 24.0493C35.246 24.3183 35.2511 24.4901 34.9668 24.7754C34.0034 25.7399 33.0349 26.6981 32.0766 27.6687C31.466 28.2874 31.7125 29.2805 32.5296 29.5045C32.9602 29.6221 33.3314 29.4973 33.6475 29.1803C34.5965 28.2261 35.5507 27.276 36.5019 26.3238C37.3691 25.4566 38.2364 24.5883 39.1047 23.722C40.0609 22.7668 41.3004 22.7566 42.2475 23.7098C43.1474 24.6159 44.1027 25.4719 44.9351 26.4425C48.4829 30.5773 47.3181 36.9355 42.5338 39.5567C40.832 40.4884 39.1118 41.3863 37.3988 42.2966C36.8792 42.5727 36.42 42.5062 36.0007 42.0879C33.0594 39.1497 30.1201 36.2094 27.1798 33.2701C26.9385 33.0287 26.8209 32.7414 26.8239 32.3977C26.8301 31.87 26.8249 31.3413 26.8249 30.7409Z" fill="white"/>
<path d="M30.6703 46.998C29.8972 46.9765 29.2805 46.7219 28.7763 46.2197C27.1052 44.5547 25.43 42.8949 23.7752 41.2146C22.7372 40.1601 22.7474 38.5801 23.7721 37.5154C24.262 37.0061 24.7652 36.5101 25.2704 36.0151C25.7378 35.5579 26.378 35.5569 26.8444 36.0212C29.2252 38.396 31.6041 40.7738 33.9788 43.1547C34.4523 43.6292 34.4482 44.2694 33.9788 44.747C33.49 45.2451 32.9939 45.737 32.4979 46.2279C31.9753 46.7444 31.3392 46.9868 30.6703 46.997V46.998Z" fill="white"/>
</g>
</g>
<defs>
<filter id="filter0_d_1_678" x="0" y="0" width="69" height="69" filterUnits="userSpaceOnUse" color-interpolation-filters="sRGB">
<feFlood flood-opacity="0" result="BackgroundImageFix"/>
<feColorMatrix in="SourceAlpha" type="matrix" values="0 0 0 0 0 0 0 0 0 0 0 0 0 0 0 0 0 0 127 0" result="hardAlpha"/>
<feMorphology radius="10" operator="erode" in="SourceAlpha" result="effect1_dropShadow_1_678"/>
<feOffset/>
<feGaussianBlur stdDeviation="5.5"/>
<feComposite in2="hardAlpha" operator="out"/>
<feColorMatrix type="matrix" values="0 0 0 0 0 0 0 0 0 0 0 0 0 0 0 0 0 0 0.15 0"/>
<feBlend mode="normal" in2="BackgroundImageFix" result="effect1_dropShadow_1_678"/>
<feBlend mode="normal" in="SourceGraphic" in2="effect1_dropShadow_1_678" result="shape"/>
</filter>
<clipPath id="clip0_1_678">
<rect width="24" height="23.998" fill="white" transform="translate(23 23)"/>
</clipPath>
</defs>
</svg>
