<svg width="302" height="230" viewBox="0 0 302 230" fill="none" xmlns="http://www.w3.org/2000/svg">
<path d="M189.481 56.9701L12.8726 107.269V115.827L189.481 166.489L366.089 115.827V107.269L189.481 56.9701Z" fill="#C4CAD4"/>
<path d="M195.568 104.836V163.278L365.551 114.209V51.222C365.551 43.0136 378.949 43.0136 378.949 51.222V161.142C378.949 165.479 376.284 169.312 372.36 170.593L192.219 229.541C190.422 230.124 188.503 230.124 186.706 229.541L6.58903 170.606C2.67718 169.325 0 165.492 0 161.155V51.235C0 43.0266 13.3981 43.0266 13.3981 51.235V114.222L183.38 163.291V104.849C183.38 96.6013 195.568 96.6013 195.568 104.849V104.836Z" fill="#8E95A2"/>
<path d="M183.1 57.7469C183.1 62.9645 195.874 62.9645 195.874 57.7469V4.72889C195.874 -1.5763 183.1 -1.5763 183.1 4.72889V57.7339V57.7469Z" fill="#8E95A2"/>
<path d="M10.0726 62.3694C9.13134 62.3694 8.27562 61.6961 8.03113 60.6862C7.74996 59.4822 8.42231 58.2781 9.5592 57.9674L188.954 9.51967C190.079 9.22189 191.228 9.93398 191.522 11.138C191.815 12.3421 191.13 13.5462 189.994 13.8569L10.5861 62.3046C10.4149 62.3435 10.2438 62.3823 10.0604 62.3823L10.0726 62.3694Z" fill="#8E95A2"/>
<path d="M10.6473 80.5598C9.70605 80.5598 8.85033 79.8865 8.60584 78.8766C8.32467 77.6726 8.99702 76.4685 10.1339 76.1578L189.529 27.7101C190.666 27.4123 191.803 28.1244 192.096 29.3284C192.378 30.5325 191.693 31.7366 190.568 32.0473L11.1608 80.495C10.9896 80.5339 10.8185 80.5727 10.6351 80.5727L10.6473 80.5598Z" fill="#8E95A2"/>
<path d="M11.2225 99.2683C10.2812 99.2683 9.42552 98.595 9.18103 97.5852C8.89987 96.3811 9.57222 95.177 10.7091 94.8663L190.117 46.4057C191.241 46.1079 192.39 46.82 192.684 48.024C192.965 49.2281 192.293 50.4322 191.156 50.7429L11.7482 99.2036C11.577 99.2424 11.4059 99.2812 11.2225 99.2812V99.2683Z" fill="#8E95A2"/>
<path d="M370.624 62.1235C370.453 62.1235 370.282 62.0976 370.098 62.0458L190.691 13.5851C189.566 13.2874 188.882 12.0703 189.163 10.8663C189.444 9.66219 190.605 8.9501 191.73 9.24788L371.137 57.7085C372.262 58.0063 372.947 59.2233 372.665 60.4274C372.421 61.4373 371.565 62.1105 370.624 62.1105V62.1235Z" fill="#8E95A2"/>
<path d="M370.049 80.3139C369.878 80.3139 369.707 80.288 369.524 80.2362L190.116 31.7755C188.991 31.4777 188.307 30.2607 188.588 29.0567C188.869 27.8526 190.018 27.1405 191.155 27.4383L370.563 75.8989C371.687 76.1967 372.372 77.4137 372.091 78.6178C371.846 79.6277 370.991 80.3009 370.049 80.3009V80.3139Z" fill="#8E95A2"/>
<path d="M369.463 99.0089C369.292 99.0089 369.121 98.983 368.937 98.9312L189.53 50.4706C188.405 50.1728 187.72 48.9558 188.002 47.7517C188.283 46.5477 189.432 45.8356 190.569 46.1334L369.976 94.594C371.101 94.8918 371.786 96.1088 371.504 97.3129C371.26 98.3227 370.404 98.996 369.463 98.996V99.0089Z" fill="#8E95A2"/>
<path d="M183.099 115.322C182.904 115.322 182.72 115.297 182.525 115.245L4.69419 62.0325C3.56954 61.6959 2.92163 60.453 3.23947 59.2748C3.55731 58.0837 4.71864 57.3975 5.83108 57.7341L183.662 110.946C184.786 111.283 185.434 112.526 185.116 113.704C184.86 114.688 184.016 115.335 183.087 115.335L183.099 115.322Z" fill="#8E95A2"/>
<path d="M183.099 133.914C182.904 133.914 182.72 133.888 182.525 133.837L4.69419 80.6244C3.56954 80.2878 2.92163 79.0448 3.23947 77.8667C3.55731 76.6755 4.71864 75.9894 5.83108 76.326L183.662 129.538C184.786 129.875 185.434 131.118 185.116 132.296C184.86 133.28 184.016 133.927 183.087 133.927L183.099 133.914Z" fill="#8E95A2"/>
<path d="M183.099 152.74C182.904 152.74 182.72 152.714 182.525 152.662L4.69419 99.4367C3.56954 99.1 2.92163 97.8571 3.23947 96.679C3.55731 95.4878 4.71864 94.8016 5.83108 95.1383L183.662 148.35C184.786 148.687 185.434 149.917 185.116 151.108C184.86 152.092 184.016 152.74 183.087 152.74H183.099Z" fill="#8E95A2"/>
<path d="M189.48 117.096C188.563 117.096 187.72 116.449 187.451 115.465C187.133 114.274 187.793 113.044 188.906 112.707L366.736 59.4951C367.861 59.1585 369.022 59.8577 369.328 61.0358C369.646 62.227 368.986 63.4569 367.873 63.7935L190.043 117.006C189.847 117.058 189.651 117.083 189.468 117.083L189.48 117.096Z" fill="#8E95A2"/>
<path d="M189.48 135.688C188.563 135.688 187.72 135.04 187.451 134.056C187.133 132.865 187.793 131.635 188.906 131.299L366.736 78.0865C367.861 77.7499 369.022 78.449 369.328 79.6272C369.646 80.8183 368.986 82.0483 367.873 82.3849L190.043 135.597C189.847 135.649 189.651 135.675 189.468 135.675L189.48 135.688Z" fill="#8E95A2"/>
<path d="M189.48 154.5C188.563 154.5 187.72 153.853 187.451 152.869C187.133 151.678 187.793 150.448 188.906 150.111L366.736 96.8988C367.861 96.5621 369.022 97.2613 369.328 98.4395C369.646 99.6306 368.986 100.861 367.873 101.197L190.043 154.409C189.847 154.461 189.651 154.487 189.468 154.487L189.48 154.5Z" fill="#8E95A2"/>
<mask id="mask0_1_530" style="mask-type:alpha" maskUnits="userSpaceOnUse" x="189" y="30" width="224" height="260">
<path d="M412.383 30.2216H189.48V289.99H412.383V30.2216Z" fill="black"/>
</mask>
<g mask="url(#mask0_1_530)">
<path d="M195.568 104.836V163.279L365.551 114.209V51.2222C365.551 43.0138 378.949 43.0138 378.949 51.2222V161.142C378.949 165.48 376.284 169.312 372.36 170.594L192.219 229.541C190.422 230.124 188.503 230.124 186.706 229.541L6.58903 170.607C2.67718 169.325 0 165.492 0 161.155V51.2351C0 43.0267 13.3981 43.0267 13.3981 51.2351V114.222L183.38 163.291V104.849C183.38 96.6014 195.568 96.6014 195.568 104.849V104.836Z" fill="#7B8290"/>
</g>
</svg>
