<svg width="53" height="53" viewBox="0 0 53 53" fill="none" xmlns="http://www.w3.org/2000/svg">
<circle cx="26.5" cy="26.5" r="26.5" fill="#CCE1FF"/>
<g clip-path="url(#clip0_1_270)">
<path d="M27.2705 23.4783C32.0629 23.4783 36.8553 23.4783 41.6476 23.4783C41.8505 23.4783 42.0534 23.4528 42.2393 23.5546C42.2393 27.4121 42.2393 31.278 42.2393 35.1355C42.2393 35.6951 42.1632 35.7714 41.5969 35.7714C31.4036 35.7714 21.2102 35.7714 11.0254 35.7714C11.0254 35.6696 11.0169 35.5594 11.0169 35.4577C11.0085 31.9054 11.0254 28.3616 11 24.8178C11 23.9954 11.5156 23.4613 12.3354 23.4613C17.1363 23.4783 21.9371 23.4698 26.738 23.4698C26.9155 23.4698 27.093 23.4698 27.262 23.4698L27.2705 23.4783ZM23.6952 34.4912C24.9292 34.4912 26.1632 34.4912 27.4057 34.4912C27.6931 34.4912 27.8368 34.3414 27.8368 34.0418C27.8368 33.779 27.8368 33.5162 27.8368 33.2449C27.8368 32.7956 27.8283 32.7786 27.3803 32.7786C24.9292 32.7786 22.4781 32.7786 20.0269 32.7786C19.9762 32.7786 19.9255 32.7786 19.8663 32.7786C19.655 32.7786 19.5621 32.8804 19.5705 33.0923C19.579 33.4314 19.5705 33.7705 19.5705 34.1097C19.5705 34.4657 19.5874 34.4827 19.9509 34.4827C21.1933 34.4827 22.4443 34.4827 23.6867 34.4827L23.6952 34.4912ZM41.0391 31.9563C41.0391 31.2102 41.0391 30.4726 41.0391 29.7265C41.0391 29.5146 40.9884 29.3959 40.7433 29.3959C39.281 29.3959 37.8273 29.3959 36.365 29.3959C36.1453 29.3959 36.0692 29.4892 36.0692 29.7011C36.0777 30.0402 36.0692 30.3793 36.0692 30.7185C36.0692 31.0406 36.0946 31.0576 36.4157 31.0576C37.2948 31.0576 38.1738 31.0576 39.0444 31.0576C39.3656 31.0576 39.3656 31.0576 39.3656 31.3882C39.3656 32.3039 39.3656 33.211 39.3656 34.1266C39.3656 34.4657 39.3909 34.4827 39.729 34.4827C40.0502 34.4827 40.3629 34.4827 40.6841 34.4827C41.0053 34.4827 41.0306 34.4573 41.0306 34.1351C41.0306 33.406 41.0306 32.6684 41.0306 31.9393L41.0391 31.9563ZM22.8753 26.8101C22.8753 27.0136 22.8753 27.2086 22.8753 27.4121C22.8753 27.5986 22.9514 27.6833 23.1373 27.6833C23.5177 27.6833 23.898 27.6833 24.2784 27.6833C24.4643 27.6833 24.5404 27.5986 24.5404 27.4121C24.5404 27.0221 24.5404 26.6321 24.5404 26.2421C24.5404 26.064 24.4474 25.9877 24.2953 25.9793C23.9065 25.9793 23.5177 25.9793 23.1289 25.9793C22.9683 25.9793 22.8753 26.064 22.8838 26.2421C22.8838 26.4286 22.8838 26.6236 22.8838 26.8101H22.8753ZM27.8368 26.8525C27.8368 26.649 27.8368 26.454 27.8368 26.2506C27.8368 26.081 27.7607 25.9877 27.6001 25.9793C27.2029 25.9793 26.7971 25.9793 26.3999 25.9793C26.2562 25.9793 26.1717 26.0725 26.1801 26.2251C26.1801 26.6236 26.1801 27.0305 26.1801 27.429C26.1801 27.5986 26.2647 27.6749 26.4337 27.6749C26.8141 27.6749 27.1944 27.6749 27.5747 27.6749C27.7607 27.6749 27.8452 27.5986 27.8452 27.4121C27.8452 27.2255 27.8452 27.0305 27.8452 26.844L27.8368 26.8525ZM14.6344 26.8525C14.6344 26.649 14.6344 26.4456 14.6344 26.2506C14.6344 26.081 14.5415 25.9877 14.3809 25.9877C14.0005 25.9877 13.6202 25.9877 13.2398 25.9877C13.0623 25.9877 12.9694 26.0725 12.9694 26.2675C12.9694 26.6575 12.9694 27.056 12.9694 27.446C12.9694 27.6155 13.0454 27.7003 13.2229 27.7003C13.6033 27.7003 13.9836 27.7003 14.364 27.7003C14.5499 27.7003 14.6429 27.624 14.6344 27.4375C14.6344 27.251 14.6344 27.056 14.6344 26.861V26.8525ZM16.2742 26.8271C16.2742 27.0305 16.2742 27.234 16.2742 27.429C16.2742 27.5986 16.3502 27.6833 16.5193 27.6833C16.9081 27.6833 17.3053 27.6833 17.6941 27.6833C17.8716 27.6833 17.9392 27.5901 17.9308 27.4205C17.9308 27.039 17.9308 26.6575 17.9308 26.276C17.9308 26.081 17.8378 25.9793 17.6434 25.9793C17.28 25.9793 16.925 25.9793 16.5615 25.9793C16.3587 25.9793 16.2488 26.064 16.2573 26.2845C16.2657 26.4625 16.2573 26.649 16.2573 26.8271H16.2742ZM21.2356 26.8271C21.2356 26.6321 21.2356 26.4456 21.2356 26.2506C21.2356 26.064 21.1426 25.9708 20.9651 25.9708C20.5848 25.9708 20.2044 25.9708 19.8241 25.9708C19.6635 25.9708 19.5705 26.0471 19.5705 26.2251C19.5705 26.6151 19.5705 27.0136 19.5705 27.4036C19.5705 27.5901 19.6466 27.6749 19.8325 27.6749C20.2044 27.6749 20.5763 27.6749 20.9398 27.6749C21.1426 27.6749 21.2356 27.5986 21.2272 27.3951C21.2272 27.2086 21.2272 27.0136 21.2272 26.8186L21.2356 26.8271ZM31.1416 26.8271C31.1416 26.6321 31.1416 26.4456 31.1416 26.2506C31.1416 26.0556 31.0571 25.9708 30.8796 25.9708C30.4992 25.9708 30.1189 25.9708 29.7385 25.9708C29.5779 25.9708 29.4849 26.064 29.4849 26.2336C29.4849 26.6406 29.4849 27.039 29.4849 27.446C29.4849 27.5986 29.561 27.6833 29.7216 27.6833C30.1104 27.6833 30.5077 27.6833 30.8965 27.6833C31.0655 27.6833 31.15 27.607 31.15 27.4375C31.15 27.234 31.15 27.0305 31.15 26.8355L31.1416 26.8271ZM33.6096 27.6833C33.804 27.6833 33.99 27.6833 34.1844 27.6833C34.3703 27.6833 34.4548 27.5986 34.4464 27.4121C34.4464 27.0305 34.4464 26.649 34.4464 26.2675C34.4464 26.064 34.3534 25.9793 34.159 25.9793C33.7956 25.9793 33.4406 25.9793 33.0771 25.9793C32.8658 25.9793 32.7644 26.081 32.7728 26.293C32.7728 26.4795 32.7728 26.6745 32.7728 26.8695C32.7898 27.8275 32.6376 27.6749 33.6012 27.6833H33.6096ZM37.7427 26.8355C37.7427 26.6575 37.7343 26.471 37.7427 26.293C37.7596 26.081 37.6667 25.9793 37.4469 25.9793C37.0835 25.9793 36.7285 25.9793 36.365 25.9793C36.1791 25.9793 36.0692 26.064 36.0692 26.2675C36.0692 26.649 36.0692 27.0305 36.0692 27.4121C36.0692 27.5986 36.1453 27.6833 36.3312 27.6833C36.7116 27.6833 37.0919 27.6833 37.4723 27.6833C37.6667 27.6833 37.7343 27.5901 37.7343 27.4036C37.7343 27.2086 37.7343 27.0221 37.7343 26.8271L37.7427 26.8355ZM41.0475 26.8525C41.0475 26.6575 41.0475 26.471 41.0475 26.276C41.056 26.0725 40.9715 25.9708 40.7771 25.9708C40.4052 25.9708 40.0333 25.9708 39.6698 25.9708C39.4754 25.9708 39.3825 26.0725 39.3909 26.276C39.3909 26.649 39.3909 27.0221 39.3909 27.3866C39.3909 27.6155 39.4923 27.6918 39.7036 27.6749C39.8811 27.6664 40.0671 27.6749 40.2446 27.6749C40.7912 27.6749 41.0644 27.3979 41.0644 26.844L41.0475 26.8525ZM30.3133 34.4912C30.4908 34.4912 30.6767 34.4912 30.8542 34.4912C31.0486 34.4912 31.15 34.4234 31.15 34.2199C31.15 33.8384 31.15 33.4569 31.15 33.0754C31.15 32.8888 31.074 32.7956 30.8965 32.7871C30.5161 32.7871 30.1358 32.7871 29.7554 32.7871C29.5779 32.7871 29.4849 32.8719 29.4934 33.0669C29.4934 33.2703 29.4934 33.4738 29.4934 33.6688C29.5103 34.576 29.3413 34.4912 30.3217 34.4912H30.3133ZM34.4464 33.6434C34.4464 33.4484 34.4464 33.2619 34.4464 33.0669C34.4464 32.8804 34.3619 32.7871 34.1844 32.7871C33.804 32.7871 33.4237 32.7871 33.0433 32.7871C32.8658 32.7871 32.7728 32.8804 32.7813 33.0669C32.7813 33.4484 32.7813 33.8299 32.7813 34.2114C32.7813 34.3979 32.8658 34.4912 33.0433 34.4912C33.4237 34.4912 33.804 34.4912 34.1844 34.4912C34.3788 34.4912 34.4464 34.3979 34.4379 34.2114C34.4379 34.0164 34.4379 33.8299 34.4379 33.6349L34.4464 33.6434ZM37.7427 33.6519C37.7427 33.4569 37.7427 33.2703 37.7427 33.0754C37.7512 32.8719 37.6582 32.7786 37.4638 32.7786C37.0919 32.7786 36.72 32.7786 36.3566 32.7786C36.1622 32.7786 36.0777 32.8804 36.0777 33.0838C36.0861 33.4569 36.0861 33.8299 36.0777 34.1944C36.0777 34.3979 36.1706 34.4827 36.365 34.4827C36.7369 34.4827 37.1088 34.4827 37.4723 34.4827C37.6582 34.4827 37.7427 34.4064 37.7427 34.2199C37.7427 34.0249 37.7427 33.8384 37.7427 33.6434V33.6519ZM13.8061 34.4912C13.9921 34.4912 14.1865 34.4912 14.3724 34.4912C14.5246 34.4912 14.6344 34.4234 14.6344 34.2453C14.6344 33.8553 14.6344 33.4653 14.6344 33.0669C14.6344 32.8804 14.5415 32.7871 14.364 32.7871C13.9921 32.7871 13.6286 32.7871 13.2567 32.7871C13.0623 32.7871 12.9694 32.8719 12.9694 33.0754C12.9694 33.4484 12.9694 33.8129 12.9694 34.186C12.9694 34.3979 13.0454 34.4997 13.2652 34.4912C13.4427 34.4827 13.6202 34.4912 13.8061 34.4912ZM17.9392 33.6773C17.9392 33.4738 17.9392 33.2788 17.9392 33.0754C17.9392 32.8973 17.8547 32.7871 17.6772 32.7871C17.2969 32.7871 16.9165 32.7871 16.5362 32.7871C16.3587 32.7871 16.2657 32.8804 16.2742 33.0669C16.2742 33.4569 16.2742 33.8469 16.2742 34.2453C16.2742 34.4149 16.3502 34.4997 16.5277 34.4997C16.9081 34.4997 17.2884 34.4997 17.6688 34.4997C17.8632 34.4997 17.9477 34.3979 17.9392 34.1944C17.9308 34.0249 17.9392 33.8553 17.9392 33.6858V33.6773ZM13.8146 31.0661C14.0005 31.0661 14.1949 31.0661 14.3809 31.0661C14.5499 31.0661 14.6344 30.9982 14.6344 30.8202C14.6344 30.4302 14.6344 30.0402 14.6344 29.6418C14.6344 29.4637 14.5499 29.3959 14.3809 29.3959C13.9921 29.3959 13.6033 29.3959 13.206 29.3959C13.0454 29.3959 12.9694 29.4637 12.9694 29.6248C12.9694 30.0233 12.9694 30.4302 12.9694 30.8287C12.9694 30.9898 13.0454 31.0576 13.206 31.0576C13.4089 31.0576 13.6033 31.0576 13.8061 31.0576L13.8146 31.0661ZM17.094 31.0661C17.28 31.0661 17.4744 31.0661 17.6603 31.0661C17.8378 31.0661 17.9392 31.0067 17.9308 30.8117C17.9308 30.4302 17.9308 30.0487 17.9308 29.6672C17.9308 29.4807 17.8547 29.3959 17.6688 29.4044C17.2884 29.4044 16.9081 29.4044 16.5277 29.4044C16.3587 29.4044 16.2742 29.4722 16.2742 29.6502C16.2742 30.0402 16.2742 30.4302 16.2742 30.8287C16.2742 30.9982 16.3502 31.083 16.5193 31.0745C16.7052 31.0745 16.8996 31.0745 17.0856 31.0745L17.094 31.0661ZM21.2356 30.2607C21.2356 30.0572 21.2356 29.8622 21.2356 29.6587C21.2356 29.4892 21.168 29.4044 20.9905 29.4044C20.6017 29.4044 20.2129 29.4044 19.8156 29.4044C19.6635 29.4044 19.5705 29.4637 19.5705 29.6248C19.5705 30.0402 19.5705 30.4472 19.5705 30.8626C19.5705 31.0067 19.655 31.0661 19.7987 31.0661C20.196 31.0661 20.6017 31.0661 20.9989 31.0661C21.1511 31.0661 21.2272 30.9898 21.2272 30.8287C21.2272 30.6422 21.2272 30.4472 21.2272 30.2607H21.2356ZM23.7375 29.4044C23.5346 29.4044 23.3402 29.4044 23.1373 29.4044C22.9683 29.4044 22.8838 29.4722 22.8838 29.6502C22.8838 30.0402 22.8838 30.4302 22.8838 30.8287C22.8838 31.0067 22.9599 31.0745 23.1289 31.0745C23.5177 31.0745 23.9065 31.0745 24.3038 31.0745C24.4559 31.0745 24.5404 31.0152 24.5404 30.8456C24.5404 30.4472 24.5404 30.0402 24.5404 29.6418C24.5404 29.4807 24.4643 29.4044 24.3038 29.4129C24.1178 29.4129 23.9234 29.4129 23.7375 29.4129V29.4044ZM27.8452 30.2352C27.8452 30.0487 27.8452 29.8537 27.8452 29.6672C27.8452 29.4976 27.7776 29.4129 27.6001 29.4129C27.2113 29.4129 26.8225 29.4129 26.4253 29.4129C26.2562 29.4129 26.1717 29.4892 26.1801 29.6672C26.1801 30.0572 26.1801 30.4472 26.1801 30.8456C26.1801 30.9982 26.2478 31.083 26.4083 31.083C26.8056 31.083 27.2113 31.083 27.6086 31.083C27.7691 31.083 27.8452 31.0067 27.8368 30.8456C27.8368 30.6422 27.8368 30.4472 27.8368 30.2437L27.8452 30.2352ZM30.3133 31.0745C30.5161 31.0745 30.7105 31.0745 30.9134 31.0745C31.0655 31.0745 31.15 30.9982 31.15 30.8456C31.15 30.4472 31.15 30.0402 31.15 29.6418C31.15 29.4807 31.0655 29.4129 30.9134 29.4129C30.5246 29.4129 30.1358 29.4129 29.7385 29.4129C29.5695 29.4129 29.4849 29.4892 29.4849 29.6587C29.4849 29.8622 29.4849 30.0572 29.4849 30.2607C29.4849 30.8032 29.761 31.0745 30.3133 31.0745ZM34.4464 30.2522C34.4464 30.0657 34.4464 29.8707 34.4464 29.6842C34.4464 29.4976 34.3703 29.4129 34.1844 29.4129C33.804 29.4129 33.4237 29.4129 33.0433 29.4129C32.8489 29.4129 32.7813 29.5061 32.7813 29.6842C32.7813 30.0657 32.7813 30.4472 32.7813 30.8287C32.7813 30.9982 32.8574 31.083 33.0264 31.083C33.2293 31.083 33.4237 31.083 33.6265 31.083C34.1675 31.083 34.4379 30.8061 34.4379 30.2522H34.4464Z" fill="#435073"/>
<path d="M11.0254 35.7626C21.2187 35.7626 31.4121 35.7626 41.5969 35.7626C42.1632 35.7626 42.2393 35.6863 42.2393 35.1267C42.2393 31.2692 42.2393 27.4033 42.2393 23.5458C42.7042 23.6984 43 24.0799 43 24.5547C43 28.3358 43 32.1255 43 35.9067C43 36.4493 42.5943 36.8986 42.0618 36.9664C41.9435 36.9834 41.8336 36.9919 41.7153 36.9919C31.9192 36.9919 22.1146 36.9919 12.3186 36.9919C11.6424 36.9919 11.2451 36.7375 11.0592 36.1949C11.0085 36.0508 11.0169 35.9067 11.0254 35.7541V35.7626Z" fill="#252F55"/>
<path d="M27.2707 23.4779C27.0933 23.4779 26.9158 23.4779 26.7467 23.4779C26.7467 22.7658 26.7805 22.0536 26.7467 21.35C26.7045 20.57 27.2623 19.7392 28.3526 19.7476C30.5417 19.7731 32.7309 19.7476 34.92 19.7476C35.0552 19.7476 35.1989 19.7476 35.3341 19.7307C35.7821 19.6798 36.1286 19.3068 36.1455 18.8574C36.1625 18.4166 35.8413 18.0096 35.3933 17.9333C35.2412 17.9079 35.0806 17.9079 34.92 17.9079C29.1133 17.9079 23.3067 17.9079 17.5 17.9079C17.3563 17.9079 17.2042 17.9079 17.0605 17.8909C16.5956 17.8401 16.2068 17.501 16.097 17.0431C16.0378 16.7803 16.0462 16.5175 16.0631 16.2547C16.0631 16.0936 16.173 16.0004 16.3336 16.0088C16.4773 16.0088 16.5618 16.1106 16.5703 16.2547C16.5787 16.4243 16.5703 16.5938 16.5787 16.7634C16.6041 17.1449 16.8238 17.3653 17.2042 17.3823C17.3056 17.3823 17.4155 17.3823 17.5254 17.3823C23.3489 17.3823 29.1809 17.3823 35.0045 17.3823C35.2243 17.3823 35.4525 17.3823 35.6638 17.4586C36.2977 17.662 36.7118 18.2894 36.6527 18.9592C36.602 19.612 36.1033 20.1461 35.444 20.2478C35.2919 20.2733 35.1313 20.2817 34.9707 20.2817C32.7731 20.2817 30.5756 20.2817 28.3695 20.2817C27.6088 20.2817 27.2623 20.6209 27.2623 21.3839C27.2623 22.0876 27.2623 22.7828 27.2623 23.4864L27.2707 23.4779Z" fill="#2B2F49"/>
<path d="M23.6955 34.4912C22.4531 34.4912 21.2021 34.4912 19.9597 34.4912C19.5962 34.4912 19.5793 34.4742 19.5793 34.1182C19.5793 33.779 19.5793 33.4399 19.5793 33.1008C19.5793 32.8888 19.6638 32.7871 19.8751 32.7871C19.9259 32.7871 19.9766 32.7871 20.0357 32.7871C22.4869 32.7871 24.938 32.7871 27.3891 32.7871C27.8371 32.7871 27.8456 32.8041 27.8456 33.2534C27.8456 33.5162 27.8456 33.779 27.8456 34.0503C27.8456 34.3499 27.7019 34.4997 27.4145 34.4997C26.1805 34.4997 24.9465 34.4997 23.704 34.4997L23.6955 34.4912Z" fill="#B0B6CB"/>
<path d="M41.0391 31.9475C41.0391 32.6766 41.0391 33.4141 41.0391 34.1433C41.0391 34.4654 41.0137 34.4824 40.6926 34.4909C40.3714 34.4909 40.0586 34.4909 39.7375 34.4909C39.3994 34.4909 39.374 34.4654 39.374 34.1348C39.374 33.2192 39.374 32.312 39.374 31.3964C39.374 31.0657 39.374 31.0657 39.0528 31.0657C38.1738 31.0657 37.2948 31.0657 36.4242 31.0657C36.103 31.0657 36.0777 31.0403 36.0777 30.7266C36.0777 30.3875 36.0777 30.0484 36.0777 29.7093C36.0777 29.4973 36.1453 29.4041 36.3735 29.4041C37.8357 29.4041 39.2895 29.4041 40.7517 29.4041C41.0053 29.4041 41.056 29.5227 41.0476 29.7347C41.0476 30.4808 41.0476 31.2183 41.0476 31.9644L41.0391 31.9475Z" fill="#B0B6CB"/>
<path d="M22.8751 26.8091C22.8751 26.6226 22.8751 26.4276 22.8751 26.2411C22.8751 26.0631 22.9596 25.9783 23.1202 25.9783C23.509 25.9783 23.8978 25.9783 24.2866 25.9783C24.4472 25.9783 24.5402 26.0631 24.5317 26.2411C24.5317 26.6311 24.5317 27.0211 24.5317 27.4111C24.5317 27.5976 24.4641 27.6823 24.2697 27.6823C23.8894 27.6823 23.509 27.6823 23.1287 27.6823C22.9427 27.6823 22.8582 27.5976 22.8667 27.4111C22.8667 27.2076 22.8667 27.0126 22.8667 26.8091H22.8751Z" fill="#B0B6CB"/>
<path d="M27.8369 26.8444C27.8369 27.0309 27.8369 27.2259 27.8369 27.4124C27.8369 27.5989 27.7524 27.6752 27.5665 27.6752C27.1861 27.6752 26.8058 27.6752 26.4254 27.6752C26.2564 27.6752 26.1718 27.5989 26.1718 27.4294C26.1718 27.0309 26.1718 26.624 26.1718 26.2255C26.1718 26.0644 26.2479 25.9796 26.3916 25.9796C26.7889 25.9711 27.1946 25.9711 27.5918 25.9796C27.7524 25.9796 27.8369 26.0729 27.8285 26.2509C27.8285 26.4544 27.8285 26.6494 27.8285 26.8529L27.8369 26.8444Z" fill="#B0B6CB"/>
<path d="M14.6263 26.8432C14.6263 27.0382 14.6263 27.2247 14.6263 27.4197C14.6263 27.6062 14.5417 27.6825 14.3558 27.6825C13.9754 27.6825 13.5951 27.6825 13.2147 27.6825C13.0457 27.6825 12.9612 27.6062 12.9612 27.4282C12.9612 27.0382 12.9612 26.6397 12.9612 26.2497C12.9612 26.0548 13.0542 25.9784 13.2317 25.97C13.612 25.97 13.9923 25.97 14.3727 25.97C14.5333 25.97 14.6263 26.0632 14.6263 26.2328C14.6263 26.4363 14.6263 26.6397 14.6263 26.8347V26.8432Z" fill="#B0B6CB"/>
<path d="M16.2744 26.8178C16.2744 26.6397 16.2744 26.4532 16.2744 26.2752C16.2575 26.0548 16.3674 25.97 16.5787 25.97C16.9421 25.97 17.2971 25.97 17.6606 25.97C17.855 25.97 17.9479 26.0717 17.9479 26.2667C17.9479 26.6482 17.9479 27.0297 17.9479 27.4112C17.9479 27.5808 17.8803 27.674 17.7113 27.674C17.3225 27.674 16.9252 27.674 16.5364 27.674C16.3674 27.674 16.2829 27.5893 16.2913 27.4197C16.2913 27.2162 16.2913 27.0128 16.2913 26.8178H16.2744Z" fill="#B0B6CB"/>
<path d="M21.2357 26.8261C21.2357 27.0211 21.2357 27.2076 21.2357 27.4026C21.2357 27.606 21.1512 27.6823 20.9483 27.6823C20.5764 27.6823 20.2045 27.6823 19.8411 27.6823C19.6551 27.6823 19.5706 27.5976 19.5791 27.4111C19.5791 27.0211 19.5791 26.6226 19.5791 26.2326C19.5791 26.0546 19.672 25.9783 19.8326 25.9783C20.213 25.9783 20.5933 25.9783 20.9737 25.9783C21.1512 25.9783 21.2441 26.0715 21.2441 26.258C21.2441 26.453 21.2441 26.6396 21.2441 26.8345L21.2357 26.8261Z" fill="#B0B6CB"/>
<path d="M31.1328 26.8264C31.1328 27.0299 31.1328 27.2334 31.1328 27.4284C31.1328 27.5979 31.0483 27.6742 30.8792 27.6742C30.4904 27.6742 30.0932 27.6742 29.7044 27.6742C29.5438 27.6742 29.4677 27.5979 29.4677 27.4368C29.4677 27.0299 29.4677 26.6314 29.4677 26.2245C29.4677 26.0549 29.5607 25.9701 29.7213 25.9617C30.1016 25.9617 30.482 25.9617 30.8623 25.9617C31.0398 25.9617 31.1328 26.0464 31.1243 26.2414C31.1243 26.428 31.1243 26.623 31.1243 26.8179L31.1328 26.8264Z" fill="#B0B6CB"/>
<path d="M33.601 27.6742C32.6374 27.6573 32.7895 27.8099 32.7726 26.8519C32.7726 26.6569 32.7726 26.4703 32.7726 26.2754C32.7726 26.0634 32.8656 25.9617 33.0769 25.9617C33.4404 25.9617 33.7954 25.9617 34.1588 25.9617C34.3532 25.9617 34.4462 26.0465 34.4462 26.2499C34.4377 26.6314 34.4462 27.0129 34.4462 27.3945C34.4462 27.581 34.3701 27.6657 34.1842 27.6657C33.9982 27.6657 33.8038 27.6657 33.6094 27.6657L33.601 27.6742Z" fill="#B0B6CB"/>
<path d="M37.7344 26.8261C37.7344 27.0211 37.7344 27.2076 37.7344 27.4026C37.7344 27.5806 37.6668 27.6823 37.4724 27.6823C37.0921 27.6823 36.7117 27.6823 36.3314 27.6823C36.1454 27.6823 36.0693 27.5976 36.0693 27.4111C36.0693 27.0295 36.0693 26.648 36.0693 26.2665C36.0693 26.0631 36.1708 25.9783 36.3652 25.9783C36.7286 25.9783 37.0836 25.9783 37.447 25.9783C37.6583 25.9783 37.7513 26.08 37.7429 26.292C37.7344 26.47 37.7429 26.6565 37.7429 26.8345L37.7344 26.8261Z" fill="#B0B6CB"/>
<path d="M41.0387 26.8515C41.0387 27.4054 40.7654 27.6823 40.2189 27.6823C40.0414 27.6823 39.8554 27.6823 39.6779 27.6823C39.4666 27.6908 39.3652 27.6145 39.3652 27.3941C39.3737 27.0211 39.3652 26.648 39.3652 26.2835C39.3652 26.0885 39.4497 25.9867 39.6441 25.9783C40.016 25.9783 40.3879 25.9783 40.7514 25.9783C40.9458 25.9783 41.0303 26.08 41.0218 26.2835C41.0134 26.47 41.0218 26.665 41.0218 26.86L41.0387 26.8515Z" fill="#B0B6CB"/>
<path d="M30.3052 34.4912C29.3247 34.4912 29.4853 34.576 29.4769 33.6688C29.4769 33.4653 29.4769 33.2619 29.4769 33.0669C29.4769 32.8719 29.5699 32.7956 29.7389 32.7871C30.1193 32.7871 30.4996 32.7871 30.88 32.7871C31.0574 32.7871 31.142 32.8888 31.1335 33.0754C31.1335 33.4569 31.1335 33.8384 31.1335 34.2199C31.1335 34.4318 31.0405 34.4997 30.8377 34.4912C30.6602 34.4912 30.4742 34.4912 30.2967 34.4912H30.3052Z" fill="#B0B6CB"/>
<path d="M34.4381 33.6349C34.4381 33.8299 34.4381 34.0164 34.4381 34.2114C34.4381 34.3895 34.3705 34.4912 34.1845 34.4912C33.8042 34.4912 33.4238 34.4912 33.0435 34.4912C32.866 34.4912 32.773 34.4064 32.7814 34.2114C32.7814 33.8299 32.7814 33.4484 32.7814 33.0669C32.7814 32.8719 32.866 32.7871 33.0435 32.7871C33.4238 32.7871 33.8042 32.7871 34.1845 32.7871C34.362 32.7871 34.455 32.8804 34.4465 33.0669C34.4465 33.2534 34.4465 33.4484 34.4465 33.6434L34.4381 33.6349Z" fill="#B0B6CB"/>
<path d="M37.7344 33.6519C37.7344 33.8469 37.7344 34.0334 37.7344 34.2284C37.7344 34.4149 37.6499 34.4997 37.4639 34.4912C37.0921 34.4912 36.7202 34.4912 36.3567 34.4912C36.1623 34.4912 36.0693 34.4064 36.0693 34.2029C36.0693 33.8299 36.0778 33.4569 36.0693 33.0923C36.0693 32.8888 36.1539 32.7956 36.3483 32.7871C36.7202 32.7871 37.0921 32.7871 37.4555 32.7871C37.6499 32.7871 37.7429 32.8804 37.7344 33.0838C37.726 33.2704 37.7344 33.4653 37.7344 33.6603V33.6519Z" fill="#B0B6CB"/>
<path d="M13.7977 34.4912C13.6202 34.4912 13.4343 34.4912 13.2568 34.4912C13.037 34.4997 12.9525 34.3979 12.9609 34.186C12.9609 33.8129 12.9609 33.4484 12.9609 33.0754C12.9609 32.8719 13.0539 32.7871 13.2483 32.7871C13.6202 32.7871 13.9836 32.7871 14.3555 32.7871C14.533 32.7871 14.626 32.8804 14.626 33.0669C14.626 33.4569 14.626 33.8469 14.626 34.2453C14.626 34.4234 14.5246 34.4912 14.364 34.4912C14.178 34.4912 13.9836 34.4912 13.7977 34.4912Z" fill="#B0B6CB"/>
<path d="M17.9312 33.6775C17.9312 33.847 17.9312 34.0166 17.9312 34.1862C17.9396 34.3811 17.8551 34.4914 17.6607 34.4914C17.2804 34.4914 16.9 34.4914 16.5197 34.4914C16.3506 34.4914 16.2661 34.4151 16.2661 34.237C16.2661 33.847 16.2661 33.457 16.2661 33.0586C16.2661 32.8721 16.3506 32.7788 16.5281 32.7788C16.9085 32.7788 17.2888 32.7788 17.6692 32.7788C17.8467 32.7788 17.9312 32.889 17.9312 33.0671C17.9312 33.2705 17.9312 33.4655 17.9312 33.669V33.6775Z" fill="#B0B6CB"/>
<path d="M13.8062 31.0576C13.6033 31.0576 13.4089 31.0576 13.2061 31.0576C13.0539 31.0576 12.9694 30.9897 12.9694 30.8287C12.9694 30.4302 12.9694 30.0232 12.9694 29.6248C12.9694 29.4637 13.0455 29.3959 13.2061 29.3959C13.5949 29.3959 13.9837 29.3959 14.3809 29.3959C14.55 29.3959 14.6345 29.4722 14.6345 29.6417C14.6345 30.0317 14.6345 30.4217 14.6345 30.8202C14.6345 30.9982 14.55 31.066 14.3809 31.066C14.195 31.066 14.0006 31.066 13.8146 31.066L13.8062 31.0576Z" fill="#B0B6CB"/>
<path d="M17.0855 31.066C16.8996 31.066 16.7052 31.066 16.5192 31.066C16.3502 31.066 16.2657 30.9897 16.2741 30.8202C16.2741 30.4302 16.2741 30.0402 16.2741 29.6417C16.2741 29.4637 16.3586 29.3959 16.5277 29.3959C16.908 29.3959 17.2884 29.3959 17.6687 29.3959C17.8547 29.3959 17.9392 29.4722 17.9307 29.6587C17.9307 30.0402 17.9307 30.4217 17.9307 30.8032C17.9307 30.9982 17.8378 31.066 17.6603 31.0576C17.4743 31.0576 17.2799 31.0576 17.094 31.0576L17.0855 31.066Z" fill="#B0B6CB"/>
<path d="M21.2359 30.2522C21.2359 30.4387 21.2359 30.6337 21.2359 30.8202C21.2359 30.9813 21.1599 31.0576 21.0077 31.0576C20.6105 31.0576 20.2048 31.0576 19.8075 31.0576C19.6723 31.0576 19.5878 30.9982 19.5793 30.8541C19.5793 30.4387 19.5793 30.0317 19.5793 29.6163C19.5793 29.4552 19.6723 29.3959 19.8244 29.3959C20.2132 29.3959 20.602 29.3959 20.9993 29.3959C21.1768 29.3959 21.2444 29.4807 21.2444 29.6502C21.2444 29.8537 21.2444 30.0487 21.2444 30.2522H21.2359Z" fill="#B0B6CB"/>
<path d="M23.7294 29.3962C23.9153 29.3962 24.1097 29.3962 24.2957 29.3962C24.4563 29.3962 24.5324 29.4725 24.5324 29.6251C24.5324 30.0235 24.5324 30.4305 24.5324 30.829C24.5324 30.99 24.4478 31.0579 24.2957 31.0579C23.9069 31.0579 23.5181 31.0579 23.1208 31.0579C22.9518 31.0579 22.8673 30.9816 22.8757 30.812C22.8757 30.422 22.8757 30.032 22.8757 29.6336C22.8757 29.4555 22.9603 29.3877 23.1293 29.3877C23.3321 29.3877 23.5265 29.3877 23.7294 29.3877V29.3962Z" fill="#B0B6CB"/>
<path d="M27.8367 30.2267C27.8367 30.4302 27.8367 30.6252 27.8367 30.8287C27.8367 30.9897 27.7607 31.066 27.6085 31.066C27.2113 31.066 26.8056 31.066 26.4083 31.066C26.2477 31.066 26.1801 30.9813 26.1801 30.8287C26.1801 30.4387 26.1801 30.0487 26.1801 29.6502C26.1801 29.4807 26.2562 29.3959 26.4252 29.3959C26.814 29.3959 27.2028 29.3959 27.6001 29.3959C27.7776 29.3959 27.8452 29.4891 27.8452 29.6502C27.8452 29.8367 27.8452 30.0317 27.8452 30.2182L27.8367 30.2267Z" fill="#B0B6CB"/>
<path d="M30.3051 31.0576C29.7529 31.0576 29.4768 30.7863 29.4768 30.2437C29.4768 30.0402 29.4768 29.8452 29.4768 29.6417C29.4768 29.4722 29.5528 29.3959 29.7303 29.3959C30.1191 29.3959 30.5079 29.3959 30.9052 29.3959C31.0573 29.3959 31.1419 29.4637 31.1419 29.6248C31.1419 30.0232 31.1419 30.4302 31.1419 30.8287C31.1419 30.9897 31.0658 31.0576 30.9052 31.0576C30.7023 31.0576 30.5079 31.0576 30.3051 31.0576Z" fill="#B0B6CB"/>
<path d="M34.4381 30.2341C34.4381 30.788 34.1677 31.065 33.6267 31.065C33.4239 31.065 33.2295 31.065 33.0266 31.065C32.8576 31.065 32.773 30.9887 32.7815 30.8106C32.7815 30.4291 32.7815 30.0476 32.7815 29.6661C32.7815 29.4796 32.8491 29.3863 33.0435 29.3948C33.4239 29.3948 33.8042 29.3948 34.1846 29.3948C34.379 29.3948 34.455 29.4796 34.4466 29.6661C34.4466 29.8526 34.4466 30.0476 34.4466 30.2341H34.4381Z" fill="#B0B6CB"/>
</g>
<defs>
<clipPath id="clip0_1_270">
<rect width="32" height="21" fill="white" transform="translate(11 16)"/>
</clipPath>
</defs>
</svg>
